G04*
G04 #@! TF.GenerationSoftware,Altium Limited,Altium Designer,25.2.1 (25)*
G04*
G04 Layer_Physical_Order=1*
G04 Layer_Color=255*
%FSLAX44Y44*%
%MOMM*%
G71*
G04*
G04 #@! TF.SameCoordinates,8C29F912-5D16-4966-89D4-FD56EA257BD5*
G04*
G04*
G04 #@! TF.FilePolarity,Positive*
G04*
G01*
G75*
%ADD11C,0.2000*%
%ADD16C,0.2540*%
G04:AMPARAMS|DCode=47|XSize=0.95mm|YSize=0.95mm|CornerRadius=0mm|HoleSize=0mm|Usage=FLASHONLY|Rotation=180.000|XOffset=0mm|YOffset=0mm|HoleType=Round|Shape=RoundedRectangle|*
%AMROUNDEDRECTD47*
21,1,0.9500,0.9500,0,0,180.0*
21,1,0.9500,0.9500,0,0,180.0*
1,1,0.0000,-0.4750,0.4750*
1,1,0.0000,0.4750,0.4750*
1,1,0.0000,0.4750,-0.4750*
1,1,0.0000,-0.4750,-0.4750*
%
%ADD47ROUNDEDRECTD47*%
%ADD48R,0.7000X1.1500*%
%ADD49R,1.0000X0.9000*%
%ADD50R,0.9000X1.0000*%
G04:AMPARAMS|DCode=51|XSize=0.95mm|YSize=0.95mm|CornerRadius=0mm|HoleSize=0mm|Usage=FLASHONLY|Rotation=90.000|XOffset=0mm|YOffset=0mm|HoleType=Round|Shape=RoundedRectangle|*
%AMROUNDEDRECTD51*
21,1,0.9500,0.9500,0,0,90.0*
21,1,0.9500,0.9500,0,0,90.0*
1,1,0.0000,0.4750,0.4750*
1,1,0.0000,0.4750,-0.4750*
1,1,0.0000,-0.4750,-0.4750*
1,1,0.0000,-0.4750,0.4750*
%
%ADD51ROUNDEDRECTD51*%
%ADD52R,4.0000X4.0000*%
%ADD53R,1.1800X4.7000*%
%ADD54R,1.6800X1.6800*%
G04:AMPARAMS|DCode=55|XSize=0.2mm|YSize=0.6mm|CornerRadius=0.005mm|HoleSize=0mm|Usage=FLASHONLY|Rotation=0.000|XOffset=0mm|YOffset=0mm|HoleType=Round|Shape=RoundedRectangle|*
%AMROUNDEDRECTD55*
21,1,0.2000,0.5900,0,0,0.0*
21,1,0.1900,0.6000,0,0,0.0*
1,1,0.0100,0.0950,-0.2950*
1,1,0.0100,-0.0950,-0.2950*
1,1,0.0100,-0.0950,0.2950*
1,1,0.0100,0.0950,0.2950*
%
%ADD55ROUNDEDRECTD55*%
G04:AMPARAMS|DCode=56|XSize=0.2mm|YSize=0.6mm|CornerRadius=0.005mm|HoleSize=0mm|Usage=FLASHONLY|Rotation=270.000|XOffset=0mm|YOffset=0mm|HoleType=Round|Shape=RoundedRectangle|*
%AMROUNDEDRECTD56*
21,1,0.2000,0.5900,0,0,270.0*
21,1,0.1900,0.6000,0,0,270.0*
1,1,0.0100,-0.2950,-0.0950*
1,1,0.0100,-0.2950,0.0950*
1,1,0.0100,0.2950,0.0950*
1,1,0.0100,0.2950,-0.0950*
%
%ADD56ROUNDEDRECTD56*%
%ADD57R,2.2500X2.3000*%
%ADD58R,1.7500X1.3000*%
%ADD59R,0.5000X1.3000*%
%ADD60R,0.6000X1.5000*%
%ADD61R,1.1500X0.7000*%
%ADD62R,0.7000X0.7000*%
G04:AMPARAMS|DCode=63|XSize=0.5mm|YSize=0.2mm|CornerRadius=0.05mm|HoleSize=0mm|Usage=FLASHONLY|Rotation=180.000|XOffset=0mm|YOffset=0mm|HoleType=Round|Shape=RoundedRectangle|*
%AMROUNDEDRECTD63*
21,1,0.5000,0.1000,0,0,180.0*
21,1,0.4000,0.2000,0,0,180.0*
1,1,0.1000,-0.2000,0.0500*
1,1,0.1000,0.2000,0.0500*
1,1,0.1000,0.2000,-0.0500*
1,1,0.1000,-0.2000,-0.0500*
%
%ADD63ROUNDEDRECTD63*%
%ADD64R,1.5000X1.5500*%
%ADD65R,0.6000X1.2000*%
%ADD66R,2.2000X1.5500*%
%ADD67R,1.0000X1.0000*%
%ADD68C,0.7000*%
%ADD69C,0.4000*%
%ADD70C,4.0000*%
%ADD71R,4.0000X3.0000*%
%ADD72C,2.2000*%
%ADD73C,1.5000*%
%ADD74R,1.5000X1.5000*%
%ADD75C,0.7000*%
%ADD76C,0.4000*%
G36*
X279277Y624314D02*
X284779Y616094D01*
X289404Y607352D01*
X293104Y598179D01*
X294603Y592972D01*
X293839Y591957D01*
X264091D01*
X264029Y591945D01*
X263967Y591954D01*
X256957Y591629D01*
X256749Y591578D01*
X256536Y591576D01*
X249664Y590148D01*
X249468Y590064D01*
X249257Y590029D01*
X242698Y587531D01*
X242517Y587418D01*
X242315Y587349D01*
X236233Y583847D01*
X236072Y583707D01*
X235883Y583607D01*
X230431Y579187D01*
X230295Y579023D01*
X230124Y578895D01*
X225439Y573669D01*
X225330Y573485D01*
X225182Y573331D01*
X221383Y567431D01*
X221304Y567232D01*
X221182Y567057D01*
X218362Y560630D01*
X218316Y560421D01*
X218223Y560229D01*
X216455Y553438D01*
X216443Y553224D01*
X216381Y553020D01*
X215709Y546034D01*
X215731Y545821D01*
X215702Y545609D01*
X216143Y538605D01*
X216197Y538399D01*
X216203Y538185D01*
X217745Y531339D01*
X217832Y531143D01*
X217871Y530933D01*
X220476Y524416D01*
X220592Y524237D01*
X220664Y524036D01*
X224267Y518013D01*
X224410Y517854D01*
X224513Y517667D01*
X229022Y512290D01*
X229189Y512156D01*
X229320Y511987D01*
X234622Y507389D01*
X234808Y507283D01*
X234964Y507137D01*
X240926Y503436D01*
X241126Y503361D01*
X241303Y503242D01*
X247776Y500529D01*
X247986Y500486D01*
X248180Y500396D01*
X255000Y498741D01*
X255213Y498732D01*
X255418Y498674D01*
X262415Y498118D01*
X262521Y498130D01*
X262627Y498110D01*
X277611D01*
X281613Y497658D01*
X285271Y496379D01*
X288552Y494316D01*
X291293Y491576D01*
X293354Y488295D01*
X294634Y484637D01*
X295082Y480661D01*
X295072Y480112D01*
X284904Y208803D01*
X284328Y204914D01*
X282974Y201381D01*
X280884Y198227D01*
X278160Y195602D01*
X274929Y193632D01*
X271348Y192411D01*
X267440Y191981D01*
X237481D01*
X237378Y191961D01*
X237273Y191973D01*
X230399Y191438D01*
X230197Y191381D01*
X229988Y191374D01*
X223279Y189780D01*
X223089Y189693D01*
X222883Y189653D01*
X216502Y187040D01*
X216328Y186925D01*
X216131Y186854D01*
X210231Y183284D01*
X210077Y183143D01*
X209893Y183042D01*
X204617Y178603D01*
X204487Y178439D01*
X204321Y178311D01*
X199796Y173108D01*
X199692Y172927D01*
X199548Y172775D01*
X195883Y166934D01*
X195809Y166738D01*
X195690Y166566D01*
X192974Y160228D01*
X192930Y160023D01*
X192840Y159835D01*
X191137Y153152D01*
X191126Y152943D01*
X191066Y152743D01*
X190419Y145878D01*
X190440Y145670D01*
X190412Y145463D01*
X190835Y138580D01*
X190888Y138378D01*
X190893Y138169D01*
X192376Y131435D01*
X192460Y131243D01*
X192497Y131037D01*
X195005Y124614D01*
X195118Y124437D01*
X195186Y124240D01*
X198658Y118282D01*
X198797Y118125D01*
X198895Y117940D01*
X203248Y112593D01*
X203409Y112459D01*
X203534Y112292D01*
X208662Y107682D01*
X208842Y107575D01*
X208992Y107429D01*
X214772Y103669D01*
X214966Y103592D01*
X215137Y103470D01*
X221399Y100664D01*
X224806Y99036D01*
X227619Y96896D01*
X229939Y94229D01*
X231669Y91147D01*
X232736Y87778D01*
X233104Y84191D01*
X233021Y82501D01*
X225928Y10391D01*
X225166Y6693D01*
X223705Y3364D01*
X221581Y414D01*
X218888Y-2027D01*
X215744Y-3852D01*
X212288Y-4980D01*
X208533Y-5377D01*
X16429D01*
X12673Y-4980D01*
X9218Y-3852D01*
X6074Y-2027D01*
X3381Y414D01*
X1257Y3364D01*
X-204Y6693D01*
X-966Y10391D01*
X-8052Y82427D01*
X-8004Y86388D01*
X-7123Y90098D01*
X-5451Y93525D01*
X-3070Y96503D01*
X-94Y98887D01*
X3557Y100672D01*
X9703Y103424D01*
X9871Y103544D01*
X10063Y103620D01*
X15754Y107302D01*
X15902Y107446D01*
X16080Y107550D01*
X21142Y112059D01*
X21266Y112224D01*
X21426Y112354D01*
X25741Y117583D01*
X25838Y117764D01*
X25977Y117918D01*
X29442Y123744D01*
X29511Y123938D01*
X29624Y124111D01*
X32159Y130398D01*
X32197Y130601D01*
X32282Y130789D01*
X33827Y137389D01*
X33834Y137596D01*
X33890Y137794D01*
X34409Y144553D01*
X34384Y144760D01*
X34409Y144968D01*
X33863Y151892D01*
X33806Y152095D01*
X33798Y152306D01*
X32177Y159059D01*
X32088Y159251D01*
X32047Y159459D01*
X29389Y165875D01*
X29272Y166051D01*
X29198Y166250D01*
X25570Y172171D01*
X25426Y172327D01*
X25323Y172511D01*
X20812Y177792D01*
X20646Y177923D01*
X20515Y178089D01*
X15234Y182600D01*
X15050Y182703D01*
X14894Y182847D01*
X8973Y186475D01*
X8774Y186548D01*
X8598Y186666D01*
X2182Y189324D01*
X1975Y189365D01*
X1783Y189454D01*
X-4971Y191075D01*
X-5182Y191083D01*
X-5386Y191141D01*
X-12309Y191685D01*
X-12415Y191673D01*
X-12519Y191694D01*
X-42333D01*
X-46241Y192123D01*
X-49822Y193345D01*
X-53052Y195315D01*
X-55777Y197939D01*
X-57867Y201094D01*
X-59221Y204627D01*
X-59797Y208516D01*
X-69964Y480005D01*
X-69736Y483607D01*
X-68830Y486961D01*
X-67272Y490065D01*
X-65125Y492797D01*
X-62476Y495044D01*
X-59431Y496717D01*
X-56114Y497749D01*
X-52523Y498111D01*
X-37532D01*
X-37428Y498132D01*
X-37322Y498120D01*
X-30398Y498665D01*
X-30195Y498722D01*
X-29984Y498731D01*
X-23231Y500351D01*
X-23038Y500440D01*
X-22831Y500481D01*
X-16414Y503139D01*
X-16239Y503257D01*
X-16040Y503330D01*
X-10119Y506959D01*
X-9964Y507102D01*
X-9779Y507205D01*
X-4498Y511716D01*
X-4367Y511882D01*
X-4201Y512013D01*
X310Y517294D01*
X413Y517478D01*
X556Y517634D01*
X4185Y523555D01*
X4259Y523754D01*
X4376Y523930D01*
X7034Y530346D01*
X7075Y530554D01*
X7164Y530746D01*
X8785Y537499D01*
X8793Y537710D01*
X8850Y537914D01*
X9396Y544837D01*
X9371Y545047D01*
X9396Y545257D01*
X8850Y552182D01*
X8793Y552385D01*
X8785Y552596D01*
X7164Y559349D01*
X7075Y559541D01*
X7034Y559749D01*
X4376Y566165D01*
X4259Y566341D01*
X4185Y566539D01*
X556Y572461D01*
X413Y572616D01*
X310Y572801D01*
X-4201Y578082D01*
X-4367Y578213D01*
X-4498Y578379D01*
X-9779Y582890D01*
X-9964Y582993D01*
X-10119Y583136D01*
X-16040Y586765D01*
X-16239Y586838D01*
X-16414Y586956D01*
X-22831Y589613D01*
X-23038Y589655D01*
X-23230Y589743D01*
X-29984Y591365D01*
X-30195Y591373D01*
X-30399Y591431D01*
X-37322Y591975D01*
X-37451Y591960D01*
X-37578Y591983D01*
X-39085Y591957D01*
X-68810D01*
X-69574Y592972D01*
X-68076Y598179D01*
X-64376Y607352D01*
X-59750Y616094D01*
X-54248Y624314D01*
X-53160Y625624D01*
X-53118Y625628D01*
X10144D01*
X11220Y625160D01*
X11220Y624358D01*
Y614160D01*
Y604160D01*
Y594160D01*
Y584160D01*
Y574160D01*
Y564160D01*
Y554160D01*
Y544160D01*
Y534160D01*
Y524160D01*
X15636D01*
Y476911D01*
X14366Y476658D01*
X13582Y478551D01*
X12059Y480536D01*
X10074Y482059D01*
X7764Y483016D01*
X5283Y483343D01*
X2803Y483016D01*
X492Y482059D01*
X-1492Y480536D01*
X-3015Y478551D01*
X-3972Y476241D01*
X-4298Y473760D01*
X-3972Y471281D01*
X-3015Y468969D01*
X-1492Y466985D01*
X492Y465462D01*
X2803Y464505D01*
X5283Y464179D01*
X7764Y464505D01*
X10074Y465462D01*
X12059Y466985D01*
X13582Y468969D01*
X14366Y470863D01*
X15636Y470610D01*
Y451511D01*
X14366Y451258D01*
X13582Y453152D01*
X12059Y455136D01*
X10074Y456659D01*
X7764Y457616D01*
X5283Y457943D01*
X2803Y457616D01*
X492Y456659D01*
X-1492Y455136D01*
X-3015Y453152D01*
X-3972Y450840D01*
X-4298Y448360D01*
X-3972Y445881D01*
X-3015Y443569D01*
X-1492Y441585D01*
X492Y440062D01*
X2803Y439105D01*
X5283Y438779D01*
X7764Y439105D01*
X10074Y440062D01*
X12059Y441585D01*
X13582Y443569D01*
X14366Y445463D01*
X15636Y445210D01*
Y408741D01*
X15890Y407465D01*
X16612Y406384D01*
X21184Y401812D01*
X20658Y400542D01*
X12105D01*
Y394556D01*
X7625D01*
Y397721D01*
X-6375D01*
Y384721D01*
X7625D01*
Y387887D01*
X12105D01*
Y381542D01*
X13771D01*
Y360568D01*
X10323D01*
Y346568D01*
X23323D01*
Y360568D01*
X20439D01*
Y362290D01*
X21605Y362542D01*
X21709Y362542D01*
X31605D01*
Y368708D01*
X43305D01*
Y365292D01*
X56805D01*
Y378792D01*
X43305D01*
Y375376D01*
X31605D01*
Y380272D01*
X31605Y381542D01*
X32875Y381542D01*
X41105D01*
Y400542D01*
X41105Y400542D01*
X41105D01*
X41504Y401674D01*
X65505Y425675D01*
X125972D01*
X127248Y425929D01*
X128330Y426651D01*
X140667Y438989D01*
X141390Y440071D01*
X141644Y441347D01*
Y504317D01*
X141390Y505593D01*
X140667Y506675D01*
X115325Y532018D01*
X114243Y532740D01*
X112967Y532994D01*
X109220D01*
Y536326D01*
X173150D01*
X174426Y536580D01*
X175508Y537303D01*
X182780Y544574D01*
X183502Y545656D01*
X183756Y546932D01*
Y547348D01*
X185422D01*
Y555587D01*
X186692Y556266D01*
X187823Y555510D01*
X190164Y555044D01*
X192505Y555510D01*
X194490Y556836D01*
X195816Y558821D01*
X196282Y561162D01*
X195816Y563503D01*
X194490Y565488D01*
X192505Y566814D01*
X190164Y567279D01*
X187823Y566814D01*
X185838Y565488D01*
X184512Y563503D01*
X184481Y563348D01*
X175422D01*
Y547348D01*
X175422Y547348D01*
X175422D01*
X175003Y546228D01*
X171769Y542994D01*
X109220D01*
Y554160D01*
Y564160D01*
Y575160D01*
X93720D01*
Y564160D01*
Y554160D01*
Y544160D01*
Y534160D01*
Y524160D01*
X109220D01*
Y526326D01*
X111586D01*
X134976Y502936D01*
Y442728D01*
X133051Y440803D01*
X131878Y441289D01*
Y472136D01*
X115904D01*
Y474189D01*
X117296D01*
Y487189D01*
X103296D01*
Y487189D01*
X102157Y487506D01*
Y487849D01*
X88658D01*
Y484432D01*
X79804D01*
X53554Y510683D01*
Y522660D01*
X75720D01*
Y538160D01*
X44720D01*
Y522660D01*
X46886D01*
Y509302D01*
X47140Y508026D01*
X47863Y506944D01*
X76066Y478741D01*
X77147Y478018D01*
X78423Y477764D01*
X88658D01*
Y474348D01*
X102157D01*
Y474348D01*
X103296Y474189D01*
Y474189D01*
X103362Y474189D01*
X104689D01*
Y472136D01*
X87878D01*
Y438136D01*
X128725D01*
X129211Y436963D01*
X124591Y432343D01*
X64124D01*
X62848Y432089D01*
X61766Y431367D01*
X33748Y403348D01*
X33025Y402266D01*
X32771Y400990D01*
Y400542D01*
X31209D01*
X31105Y400542D01*
X29939Y400793D01*
Y401106D01*
X29685Y402382D01*
X28963Y403464D01*
X22304Y410122D01*
Y418648D01*
X23342Y419208D01*
X36842D01*
Y432708D01*
X34914D01*
Y439830D01*
X35475Y440062D01*
X37459Y441585D01*
X38982Y443569D01*
X39939Y445881D01*
X40265Y448360D01*
X39939Y450840D01*
X38982Y453152D01*
X37459Y455136D01*
X35475Y456659D01*
X33163Y457616D01*
X30684Y457943D01*
X28203Y457616D01*
X25893Y456659D01*
X23908Y455136D01*
X23574Y454701D01*
X22304Y455132D01*
Y466989D01*
X23574Y467420D01*
X23908Y466985D01*
X25893Y465462D01*
X28203Y464505D01*
X30684Y464179D01*
X33163Y464505D01*
X35475Y465462D01*
X37459Y466985D01*
X38982Y468969D01*
X39939Y471281D01*
X40265Y473760D01*
X39939Y476241D01*
X38982Y478551D01*
X37459Y480536D01*
X35475Y482059D01*
X33163Y483016D01*
X30684Y483343D01*
X28203Y483016D01*
X25893Y482059D01*
X23908Y480536D01*
X23574Y480101D01*
X22304Y480532D01*
Y524160D01*
X26720D01*
Y534160D01*
Y544160D01*
Y554160D01*
Y564160D01*
Y574160D01*
Y584160D01*
Y594160D01*
Y604160D01*
Y614160D01*
X26720Y625160D01*
X27796Y625628D01*
X34720D01*
Y611160D01*
X35157D01*
X35836Y609890D01*
X35039Y608698D01*
X34612Y606552D01*
X35039Y604406D01*
X36255Y602587D01*
X38074Y601371D01*
X40220Y600944D01*
X42366Y601371D01*
X44185Y602587D01*
X45401Y604406D01*
X45828Y606552D01*
X45401Y608698D01*
X44604Y609890D01*
X45283Y611160D01*
X45720D01*
Y625628D01*
X54720D01*
Y611160D01*
X65720D01*
Y625628D01*
X74720D01*
Y611160D01*
X75157D01*
X75836Y609890D01*
X75039Y608698D01*
X74612Y606552D01*
X75039Y604406D01*
X76255Y602587D01*
X78074Y601371D01*
X80220Y600944D01*
X82366Y601371D01*
X84185Y602587D01*
X85401Y604406D01*
X85828Y606552D01*
X85401Y608698D01*
X84604Y609890D01*
X85283Y611160D01*
X85720D01*
Y625628D01*
X92644D01*
X93720Y625160D01*
X93720Y624358D01*
Y614160D01*
Y604160D01*
Y594160D01*
Y584160D01*
X109220D01*
Y594160D01*
Y605425D01*
X116560D01*
Y602596D01*
X130060D01*
Y616096D01*
X116560D01*
Y613581D01*
X109220D01*
X109220Y625160D01*
X110296Y625628D01*
X278185D01*
X279277Y624314D01*
D02*
G37*
%LPC*%
G36*
X174672Y533348D02*
X174152Y533348D01*
X165192D01*
X163922Y533348D01*
X163402Y533348D01*
X153922D01*
Y524569D01*
X152652Y524207D01*
X150849Y525412D01*
X148508Y525877D01*
X146167Y525412D01*
X144182Y524086D01*
X142856Y522101D01*
X142390Y519760D01*
X142856Y517419D01*
X144182Y515434D01*
X146167Y514108D01*
X148508Y513642D01*
X150849Y514108D01*
X152834Y515434D01*
X154113Y517348D01*
X155698D01*
Y511376D01*
X152676Y508353D01*
X151953Y507272D01*
X151699Y505996D01*
Y504053D01*
X148033D01*
Y491053D01*
X161972D01*
X162033Y491053D01*
X163241Y491204D01*
X163303Y491204D01*
X177180D01*
Y504204D01*
X173006D01*
Y516450D01*
X173904Y517348D01*
X175422Y517348D01*
X175818Y517348D01*
X177088Y517048D01*
Y510856D01*
X177342Y509580D01*
X178064Y508498D01*
X181325Y505237D01*
X180800Y503967D01*
X178513D01*
Y490967D01*
X192513D01*
Y503967D01*
X188847D01*
Y505765D01*
X188593Y507041D01*
X187871Y508122D01*
X183756Y512237D01*
Y517348D01*
X185422D01*
Y533348D01*
X175942D01*
X174672Y533348D01*
D02*
G37*
G36*
X117296Y504189D02*
X103296D01*
Y491189D01*
X117296D01*
Y504189D01*
D02*
G37*
G36*
X192513Y486967D02*
X178513D01*
Y473967D01*
X192513D01*
Y486967D01*
D02*
G37*
G36*
X-38640Y489558D02*
Y469106D01*
X-18188D01*
X-18426Y471525D01*
X-19715Y475773D01*
X-21808Y479689D01*
X-24625Y483121D01*
X-28057Y485938D01*
X-31973Y488031D01*
X-36221Y489320D01*
X-38640Y489558D01*
D02*
G37*
G36*
X-42640D02*
X-45059Y489320D01*
X-49307Y488031D01*
X-53223Y485938D01*
X-56655Y483121D01*
X-59472Y479689D01*
X-61565Y475773D01*
X-62854Y471525D01*
X-63092Y469106D01*
X-42640D01*
Y489558D01*
D02*
G37*
G36*
X268954Y489050D02*
Y468598D01*
X289406D01*
X289168Y471017D01*
X287879Y475265D01*
X285786Y479181D01*
X282969Y482613D01*
X279537Y485430D01*
X275621Y487523D01*
X271373Y488812D01*
X268954Y489050D01*
D02*
G37*
G36*
X264954D02*
X262535Y488812D01*
X258287Y487523D01*
X254371Y485430D01*
X250939Y482613D01*
X248122Y479181D01*
X246029Y475265D01*
X244740Y471017D01*
X244502Y468598D01*
X264954D01*
Y489050D01*
D02*
G37*
G36*
X65584Y483260D02*
X46583D01*
Y464260D01*
X65584D01*
Y483260D01*
D02*
G37*
G36*
X-18188Y465106D02*
X-38640D01*
Y444654D01*
X-36221Y444892D01*
X-31973Y446181D01*
X-28057Y448274D01*
X-24625Y451091D01*
X-21808Y454523D01*
X-19715Y458439D01*
X-18426Y462687D01*
X-18188Y465106D01*
D02*
G37*
G36*
X-42640D02*
X-63092D01*
X-62854Y462687D01*
X-61565Y458439D01*
X-59472Y454523D01*
X-56655Y451091D01*
X-53223Y448274D01*
X-49307Y446181D01*
X-45059Y444892D01*
X-42640Y444654D01*
Y465106D01*
D02*
G37*
G36*
X289406Y464598D02*
X268954D01*
Y444146D01*
X271373Y444384D01*
X275621Y445673D01*
X279537Y447766D01*
X282969Y450583D01*
X285786Y454015D01*
X287879Y457931D01*
X289168Y462179D01*
X289406Y464598D01*
D02*
G37*
G36*
X264954D02*
X244502D01*
X244740Y462179D01*
X246029Y457931D01*
X248122Y454015D01*
X250939Y450583D01*
X254371Y447766D01*
X258287Y445673D01*
X262535Y444384D01*
X264954Y444146D01*
Y464598D01*
D02*
G37*
G36*
X163180Y487204D02*
X161973Y487053D01*
X161910Y487053D01*
X148033D01*
Y474053D01*
X151699D01*
Y437965D01*
X151068Y437543D01*
X149852Y435724D01*
X149425Y433578D01*
X149852Y431432D01*
X151068Y429613D01*
X152887Y428397D01*
X155033Y427970D01*
X157179Y428397D01*
X158998Y429613D01*
X160214Y431432D01*
X160641Y433578D01*
X160214Y435724D01*
X158998Y437543D01*
X158367Y437965D01*
Y474053D01*
X161972D01*
X162033Y474053D01*
X163241Y474204D01*
X163303Y474204D01*
X166846D01*
Y437965D01*
X166215Y437543D01*
X164999Y435724D01*
X164572Y433578D01*
X164999Y431432D01*
X166215Y429613D01*
X168034Y428397D01*
X170180Y427970D01*
X172326Y428397D01*
X174145Y429613D01*
X175361Y431432D01*
X175788Y433578D01*
X175361Y435724D01*
X174145Y437543D01*
X173514Y437965D01*
Y474204D01*
X177180D01*
Y487204D01*
X163241D01*
X163180Y487204D01*
D02*
G37*
G36*
X253238Y401478D02*
X249844Y401031D01*
X246682Y399721D01*
X243966Y397638D01*
X241882Y394922D01*
X240573Y391760D01*
X240126Y388366D01*
X240573Y384972D01*
X241882Y381810D01*
X243966Y379094D01*
X246682Y377010D01*
X249844Y375701D01*
X253238Y375254D01*
X256632Y375701D01*
X259794Y377010D01*
X262510Y379094D01*
X264594Y381810D01*
X265903Y384972D01*
X266350Y388366D01*
X265903Y391760D01*
X264594Y394922D01*
X262510Y397638D01*
X259794Y399721D01*
X256632Y401031D01*
X253238Y401478D01*
D02*
G37*
G36*
Y350678D02*
X249844Y350231D01*
X246682Y348922D01*
X243966Y346838D01*
X241882Y344122D01*
X240573Y340960D01*
X240126Y337566D01*
X240573Y334172D01*
X241882Y331010D01*
X243966Y328294D01*
X246682Y326211D01*
X249844Y324901D01*
X253238Y324454D01*
X256632Y324901D01*
X259794Y326211D01*
X262510Y328294D01*
X264594Y331010D01*
X265903Y334172D01*
X266350Y337566D01*
X265903Y340960D01*
X264594Y344122D01*
X262510Y346838D01*
X259794Y348922D01*
X256632Y350231D01*
X253238Y350678D01*
D02*
G37*
G36*
X196088D02*
X192694Y350231D01*
X189532Y348922D01*
X186816Y346838D01*
X184732Y344122D01*
X183423Y340960D01*
X182976Y337566D01*
X183423Y334172D01*
X184013Y332746D01*
X163759Y312491D01*
X163036Y311410D01*
X162782Y310134D01*
Y166599D01*
X159655Y163472D01*
X148094D01*
Y176984D01*
X154589D01*
X154595Y176985D01*
X154600Y176984D01*
X154985Y177062D01*
X155370Y177139D01*
X155374Y177142D01*
X155380Y177143D01*
X155704Y177362D01*
X156031Y177581D01*
X156034Y177586D01*
X156039Y177589D01*
X156932Y178491D01*
X156935Y178496D01*
X156940Y178499D01*
X157154Y178828D01*
X157371Y179155D01*
X157372Y179161D01*
X157375Y179165D01*
X157447Y179550D01*
X157522Y179936D01*
X157521Y179942D01*
X157522Y179947D01*
X156735Y254694D01*
X156655Y255074D01*
X156580Y255453D01*
X156574Y255462D01*
X156572Y255472D01*
X156353Y255793D01*
X156138Y256114D01*
X156129Y256120D01*
X156123Y256129D01*
X155799Y256341D01*
X155477Y256556D01*
X155466Y256558D01*
X155457Y256564D01*
X155076Y256636D01*
X154696Y256711D01*
X132588Y256712D01*
X132582Y256710D01*
X132575Y256712D01*
X130293Y256697D01*
X129902Y256617D01*
X129518Y256539D01*
X129516Y256537D01*
X129513Y256537D01*
X129181Y256312D01*
X128858Y256094D01*
X128857Y256092D01*
X128854Y256091D01*
X128637Y255761D01*
X128419Y255431D01*
X128418Y255429D01*
X128417Y255426D01*
X128342Y255040D01*
X128266Y254650D01*
X128270Y253713D01*
X128522Y186065D01*
Y173101D01*
X125113Y168827D01*
X110548Y168827D01*
Y175999D01*
X110759Y176041D01*
X110975Y176044D01*
X112141Y176294D01*
X112312Y176368D01*
X112495Y176404D01*
X112674Y176524D01*
X112872Y176609D01*
X113001Y176743D01*
X113156Y176846D01*
X113276Y177025D01*
X113426Y177180D01*
X113495Y177353D01*
X113598Y177508D01*
X113640Y177719D01*
X113720Y177919D01*
X113717Y178105D01*
X113754Y178288D01*
Y186910D01*
X125077Y197305D01*
X125103Y197341D01*
X125140Y197365D01*
X125337Y197661D01*
X125547Y197947D01*
X125557Y197990D01*
X125582Y198027D01*
X125651Y198375D01*
X125735Y198720D01*
X125729Y198764D01*
X125737Y198807D01*
X125737Y253713D01*
X125582Y254494D01*
X125140Y255155D01*
X124478Y255597D01*
X123698Y255752D01*
X96058Y255752D01*
X95278Y255597D01*
X94616Y255155D01*
X94174Y254494D01*
X94019Y253713D01*
Y195222D01*
X83009D01*
X81930Y195684D01*
X81930Y196492D01*
Y208684D01*
X67930D01*
X67930Y196024D01*
X67169Y195326D01*
X66867Y195184D01*
X66275Y195067D01*
X65613Y194625D01*
X65171Y193963D01*
X65016Y193183D01*
Y177704D01*
X65171Y176924D01*
X65613Y176262D01*
X66275Y175821D01*
X67055Y175665D01*
X81427Y175665D01*
X81624Y175704D01*
X81825D01*
X82010Y175781D01*
X82207Y175821D01*
X82374Y175932D01*
X82560Y176009D01*
X82694Y176098D01*
X82899Y176139D01*
X88474D01*
X89501Y176014D01*
X89748Y174771D01*
Y169196D01*
X88598Y168178D01*
X82698D01*
X81898Y168019D01*
X81220Y167566D01*
X80767Y166888D01*
X80608Y166088D01*
Y164188D01*
X80767Y163388D01*
X81220Y162710D01*
X81898Y162257D01*
X82698Y162098D01*
X88598D01*
X89748Y161080D01*
Y157872D01*
X79829Y157872D01*
X79049Y157717D01*
X78387Y157274D01*
X77945Y156613D01*
X77790Y155833D01*
X77790Y130852D01*
X77945Y130072D01*
X78387Y129410D01*
X79049Y128968D01*
X79829Y128813D01*
X93301Y128813D01*
X94081Y128968D01*
X94365Y129158D01*
X94796Y128512D01*
X95458Y128070D01*
X96238Y127915D01*
X122800D01*
X122800Y127915D01*
X122801Y127915D01*
X123214Y127997D01*
X123580Y128070D01*
X123580Y128070D01*
X123581Y128070D01*
X123901Y128284D01*
X124242Y128512D01*
X124242Y128512D01*
X124242Y128512D01*
X125140Y129411D01*
X125140Y129411D01*
X125140Y129412D01*
X125369Y129754D01*
X125582Y130073D01*
X125582Y130073D01*
X125582Y130074D01*
X125659Y130461D01*
X125736Y130853D01*
X125736Y130854D01*
X125736Y130854D01*
X125714Y155906D01*
X126612Y156804D01*
X161036D01*
X162312Y157058D01*
X163393Y157781D01*
X168473Y162861D01*
X169196Y163942D01*
X169450Y165218D01*
Y308753D01*
X188047Y327350D01*
X189532Y326211D01*
X192694Y324901D01*
X196088Y324454D01*
X199482Y324901D01*
X202644Y326211D01*
X205360Y328294D01*
X207444Y331010D01*
X208753Y334172D01*
X209200Y337566D01*
X208753Y340960D01*
X207444Y344122D01*
X205360Y346838D01*
X202644Y348922D01*
X199482Y350231D01*
X196088Y350678D01*
D02*
G37*
G36*
Y401478D02*
X192694Y401031D01*
X189532Y399721D01*
X186816Y397638D01*
X184732Y394922D01*
X184340Y393974D01*
X135416D01*
X133270Y393547D01*
X131451Y392331D01*
X98295Y359176D01*
X40323D01*
Y360568D01*
X27323D01*
Y346568D01*
X40323D01*
Y347960D01*
X100618D01*
X102764Y348387D01*
X104584Y349603D01*
X137739Y382758D01*
X184340D01*
X184732Y381810D01*
X186816Y379094D01*
X189532Y377010D01*
X192694Y375701D01*
X196088Y375254D01*
X199482Y375701D01*
X202644Y377010D01*
X205360Y379094D01*
X205969Y379888D01*
X214347D01*
X216383Y377853D01*
X222729Y371507D01*
Y333693D01*
X199569Y310533D01*
X198353Y308714D01*
X197926Y306568D01*
Y305210D01*
X181248D01*
Y261210D01*
X225248D01*
Y305210D01*
X211766D01*
X211280Y306383D01*
X232302Y327405D01*
X233517Y329224D01*
X233944Y331370D01*
Y373829D01*
X233517Y375975D01*
X232302Y377795D01*
X224313Y385783D01*
X224313Y385783D01*
X220636Y389461D01*
X220635Y389461D01*
X218816Y390677D01*
X216670Y391104D01*
X208840D01*
X208753Y391760D01*
X207444Y394922D01*
X205360Y397638D01*
X202644Y399721D01*
X199482Y401031D01*
X196088Y401478D01*
D02*
G37*
G36*
X261842Y244956D02*
Y224504D01*
X282294D01*
X282056Y226923D01*
X280767Y231171D01*
X278674Y235087D01*
X275857Y238519D01*
X272425Y241336D01*
X268509Y243429D01*
X264261Y244718D01*
X261842Y244956D01*
D02*
G37*
G36*
X257842D02*
X255423Y244718D01*
X251175Y243429D01*
X247259Y241336D01*
X243827Y238519D01*
X241010Y235087D01*
X238917Y231171D01*
X237628Y226923D01*
X237390Y224504D01*
X257842D01*
Y244956D01*
D02*
G37*
G36*
X-32036Y242162D02*
Y221710D01*
X-11584D01*
X-11822Y224129D01*
X-13111Y228377D01*
X-15204Y232293D01*
X-18021Y235725D01*
X-21453Y238542D01*
X-25369Y240635D01*
X-29617Y241924D01*
X-32036Y242162D01*
D02*
G37*
G36*
X-36036D02*
X-38455Y241924D01*
X-42703Y240635D01*
X-46619Y238542D01*
X-50051Y235725D01*
X-52868Y232293D01*
X-54961Y228377D01*
X-56250Y224129D01*
X-56488Y221710D01*
X-36036D01*
Y242162D01*
D02*
G37*
G36*
X282294Y220504D02*
X261842D01*
Y200052D01*
X264261Y200290D01*
X268509Y201579D01*
X272425Y203672D01*
X275857Y206489D01*
X278674Y209921D01*
X280767Y213837D01*
X282056Y218085D01*
X282294Y220504D01*
D02*
G37*
G36*
X257842D02*
X237390D01*
X237628Y218085D01*
X238917Y213837D01*
X241010Y209921D01*
X243827Y206489D01*
X247259Y203672D01*
X251175Y201579D01*
X255423Y200290D01*
X257842Y200052D01*
Y220504D01*
D02*
G37*
G36*
X-11584Y217710D02*
X-32036D01*
Y197258D01*
X-29617Y197496D01*
X-25369Y198785D01*
X-21453Y200878D01*
X-18021Y203695D01*
X-15204Y207127D01*
X-13111Y211043D01*
X-11822Y215291D01*
X-11584Y217710D01*
D02*
G37*
G36*
X-36036D02*
X-56488D01*
X-56250Y215291D01*
X-54961Y211043D01*
X-52868Y207127D01*
X-50051Y203695D01*
X-46619Y200878D01*
X-42703Y198785D01*
X-38455Y197496D01*
X-36036Y197258D01*
Y217710D01*
D02*
G37*
G36*
X54517Y137331D02*
X52371Y136904D01*
X50552Y135688D01*
X49336Y133869D01*
X48909Y131723D01*
X49336Y129577D01*
X50552Y127758D01*
X51293Y127262D01*
Y96909D01*
X50935Y96670D01*
X50383Y95843D01*
X50189Y94868D01*
Y93868D01*
X50383Y92893D01*
X50935Y92065D01*
X51762Y91513D01*
X52738Y91319D01*
X53415D01*
X53462Y91288D01*
X54738Y91034D01*
X56014Y91288D01*
X56061Y91319D01*
X56738D01*
X57713Y91513D01*
X58540Y92065D01*
X59093Y92893D01*
X59287Y93868D01*
Y94868D01*
X59093Y95843D01*
X58540Y96670D01*
X57961Y97057D01*
Y127410D01*
X58482Y127758D01*
X59698Y129577D01*
X60125Y131723D01*
X59698Y133869D01*
X58482Y135688D01*
X56663Y136904D01*
X54517Y137331D01*
D02*
G37*
G36*
X56738Y87417D02*
X52738D01*
X51762Y87223D01*
X50935Y86670D01*
X50383Y85843D01*
X50189Y84868D01*
Y83868D01*
X50223Y83697D01*
X49283Y82427D01*
X44854D01*
Y86248D01*
X31854D01*
Y72248D01*
X44854D01*
Y76309D01*
X54738D01*
X54787Y76319D01*
X56738D01*
X57713Y76513D01*
X58540Y77066D01*
X59093Y77892D01*
X59287Y78868D01*
Y79868D01*
X59093Y80843D01*
X59063Y80887D01*
X58628Y81868D01*
X59063Y82848D01*
X59093Y82893D01*
X59287Y83868D01*
Y84868D01*
X59093Y85843D01*
X58540Y86670D01*
X57713Y87223D01*
X56738Y87417D01*
D02*
G37*
G36*
X96238Y116097D02*
X79829D01*
X79049Y115942D01*
X78387Y115500D01*
X77945Y114838D01*
X77790Y114058D01*
X77790Y88862D01*
X77945Y88081D01*
X78387Y87420D01*
X78582Y86829D01*
X78361Y86495D01*
X78144Y86169D01*
X78144Y86167D01*
X78143Y86165D01*
X78067Y85776D01*
X77991Y85389D01*
X77991Y85386D01*
X77991Y85384D01*
X78094Y61391D01*
X77198Y60491D01*
X62593D01*
X61812Y60336D01*
X61151Y59894D01*
X60709Y59232D01*
X60553Y58452D01*
X60553Y44704D01*
X60709Y43924D01*
X61151Y43263D01*
X61812Y42821D01*
X62593Y42665D01*
X94481Y42665D01*
X94481Y22575D01*
X94636Y21795D01*
X95078Y21133D01*
X95740Y20691D01*
X96520Y20536D01*
X103437D01*
X103469Y20543D01*
X103502Y20537D01*
X104755Y20577D01*
X105112Y20660D01*
X105471Y20731D01*
X105498Y20750D01*
X105530Y20757D01*
X105828Y20970D01*
X106132Y21174D01*
X106151Y21201D01*
X106177Y21220D01*
X106371Y21531D01*
X106574Y21835D01*
X106581Y21868D01*
X106598Y21896D01*
X106658Y22256D01*
X106729Y22615D01*
X126690D01*
Y39615D01*
X107019D01*
Y45368D01*
X115690D01*
Y64868D01*
X107019D01*
Y86293D01*
X106864Y87073D01*
X106422Y87735D01*
X105760Y88177D01*
X104980Y88332D01*
X98712D01*
X98277Y88862D01*
Y114058D01*
X98122Y114838D01*
X97680Y115500D01*
X97018Y115942D01*
X96238Y116097D01*
D02*
G37*
%LPD*%
G36*
X123698Y253713D02*
X123698Y198807D01*
X111714Y187806D01*
Y178288D01*
X110548Y178038D01*
X110548Y178038D01*
X110548Y178038D01*
X96058D01*
Y253713D01*
X123698Y253713D01*
D02*
G37*
G36*
X94019Y178038D02*
X89748D01*
X89748Y178038D01*
X88598Y178178D01*
X82698D01*
X81898Y178019D01*
X81427Y177705D01*
X67055Y177704D01*
Y193183D01*
X94019D01*
Y178038D01*
D02*
G37*
G36*
X154696Y254672D02*
X155483Y179926D01*
X154589Y179023D01*
X146055D01*
Y163472D01*
X114648D01*
X113372Y163218D01*
X113312Y163178D01*
X111698D01*
X110548Y164196D01*
Y166788D01*
X126095Y166788D01*
X130561Y172388D01*
Y186066D01*
X130309Y253720D01*
X130306Y254658D01*
X132588Y254672D01*
X154696Y254672D01*
D02*
G37*
G36*
X94199Y154935D02*
Y143636D01*
Y131750D01*
X93301Y130852D01*
X79829Y130852D01*
X79829Y155833D01*
X93301Y155833D01*
X94199Y154935D01*
D02*
G37*
G36*
X123697Y130852D02*
X122800Y129954D01*
X96238D01*
Y143636D01*
Y155833D01*
X110490Y155833D01*
Y157181D01*
X110548Y157238D01*
X110548D01*
Y160130D01*
X110554Y160147D01*
X110589Y160227D01*
X110843Y160546D01*
X111698Y161139D01*
X113312D01*
X113509Y161178D01*
X113710D01*
X113841Y161233D01*
X114849Y161433D01*
X123670D01*
X123697Y130852D01*
D02*
G37*
G36*
X96238Y89650D02*
Y89368D01*
Y88862D01*
X79829D01*
X79829Y114058D01*
X96238D01*
Y89650D01*
D02*
G37*
G36*
X104980Y86293D02*
Y46146D01*
Y39615D01*
X104690D01*
Y22615D01*
X103437Y22575D01*
X96520D01*
X96520Y44704D01*
X62593Y44704D01*
X62593Y58452D01*
X80146D01*
X80030Y85393D01*
X80926Y86293D01*
X104980Y86293D01*
D02*
G37*
D11*
X80220Y606552D02*
Y608216D01*
Y618910D01*
X38474Y79368D02*
X54738D01*
X38354Y79248D02*
X38474Y79368D01*
D16*
X54627Y94478D02*
X54738Y94368D01*
X54627Y94478D02*
Y131613D01*
X54517Y131723D02*
X54627Y131613D01*
X170180Y433578D02*
Y480704D01*
X155033Y433578D02*
Y480553D01*
X138310Y441347D02*
Y504317D01*
X112967Y529660D02*
X138310Y504317D01*
X101470Y529660D02*
X112967D01*
X64124Y429009D02*
X125972D01*
X36105Y400990D02*
X64124Y429009D01*
X125972D02*
X138310Y441347D01*
X36105Y391042D02*
Y400990D01*
X40220Y606552D02*
Y618910D01*
X78423Y481099D02*
X95407D01*
X50220Y509302D02*
Y530410D01*
Y509302D02*
X78423Y481099D01*
X18970Y408741D02*
Y529660D01*
X26605Y372042D02*
Y401106D01*
X18970Y408741D02*
X26605Y401106D01*
X166116Y165218D02*
Y310134D01*
X193548Y337566D01*
X196088D01*
X161036Y160138D02*
X166116Y165218D01*
X114648Y160138D02*
X161036D01*
X625Y391222D02*
X16925D01*
X17105Y391042D01*
Y353850D02*
Y391042D01*
X16823Y353568D02*
X17105Y353850D01*
X26605Y372042D02*
X50055D01*
X180422Y546932D02*
Y555348D01*
X173150Y539660D02*
X180422Y546932D01*
X101470Y539660D02*
X173150D01*
X109878Y455136D02*
X110296Y455554D01*
X180422Y510856D02*
Y525348D01*
X185513Y497467D02*
Y505765D01*
X180422Y510856D02*
X185513Y505765D01*
X155033Y497553D02*
Y505996D01*
X158922Y525348D02*
X159032Y525238D01*
X155033Y505996D02*
X159032Y509995D01*
Y525238D01*
X169672Y498212D02*
Y525348D01*
Y498212D02*
X170180Y497704D01*
D47*
X138555Y171001D02*
D03*
X153555D02*
D03*
X50055Y372042D02*
D03*
X65055D02*
D03*
X112190Y79868D02*
D03*
X97190D02*
D03*
X123310Y609346D02*
D03*
X138310D02*
D03*
X30092Y425958D02*
D03*
X45092D02*
D03*
D48*
X40220Y618910D02*
D03*
X80220D02*
D03*
X50220D02*
D03*
X60220D02*
D03*
X70220D02*
D03*
X80220Y530410D02*
D03*
X70220D02*
D03*
X60220D02*
D03*
X50220D02*
D03*
X40220D02*
D03*
D49*
X155033Y480553D02*
D03*
Y497553D02*
D03*
X185513Y480467D02*
D03*
Y497467D02*
D03*
X74930Y202184D02*
D03*
Y185184D02*
D03*
X625Y391222D02*
D03*
Y408222D02*
D03*
X170180Y497704D02*
D03*
Y480704D02*
D03*
X110296Y480689D02*
D03*
Y497689D02*
D03*
D50*
X33823Y353568D02*
D03*
X16823D02*
D03*
X21354Y79248D02*
D03*
X38354D02*
D03*
D51*
X87668Y137926D02*
D03*
Y122926D02*
D03*
X117573Y138057D02*
D03*
Y123057D02*
D03*
X102718Y137988D02*
D03*
Y122988D02*
D03*
X95407Y481099D02*
D03*
Y496099D02*
D03*
D52*
X203248Y283210D02*
D03*
Y219710D02*
D03*
D53*
X108527Y223686D02*
D03*
X141627D02*
D03*
D54*
X100148Y167638D02*
D03*
D55*
X107648Y182138D02*
D03*
X102648D02*
D03*
X97648D02*
D03*
X92648D02*
D03*
Y153138D02*
D03*
X97648D02*
D03*
X102648D02*
D03*
X107648D02*
D03*
D56*
X85648Y175138D02*
D03*
Y170138D02*
D03*
Y165138D02*
D03*
Y160138D02*
D03*
X114648D02*
D03*
Y165138D02*
D03*
Y170138D02*
D03*
Y175138D02*
D03*
D57*
X136440Y9075D02*
D03*
X94940D02*
D03*
D58*
X146170Y30935D02*
D03*
X85210D02*
D03*
D59*
X128690Y31115D02*
D03*
X122190D02*
D03*
X115690D02*
D03*
X109190D02*
D03*
X102690D02*
D03*
D60*
X26605Y372042D02*
D03*
X17105Y391042D02*
D03*
X36105D02*
D03*
D61*
X18970Y529660D02*
D03*
Y539660D02*
D03*
Y549660D02*
D03*
Y559660D02*
D03*
Y569660D02*
D03*
Y579660D02*
D03*
Y589660D02*
D03*
Y599660D02*
D03*
Y609660D02*
D03*
Y619660D02*
D03*
X101470D02*
D03*
Y609660D02*
D03*
Y599660D02*
D03*
Y589660D02*
D03*
Y579660D02*
D03*
Y569660D02*
D03*
Y559660D02*
D03*
Y549660D02*
D03*
Y539660D02*
D03*
Y529660D02*
D03*
D62*
X42970Y568960D02*
D03*
X54470D02*
D03*
Y557460D02*
D03*
X65970Y568960D02*
D03*
Y557460D02*
D03*
X77470Y568960D02*
D03*
X54470Y580460D02*
D03*
X65970D02*
D03*
X54470Y591960D02*
D03*
X65970D02*
D03*
X77470D02*
D03*
X42970D02*
D03*
D63*
X83438Y79368D02*
D03*
Y84368D02*
D03*
Y89368D02*
D03*
Y94368D02*
D03*
X54738D02*
D03*
Y89368D02*
D03*
Y84368D02*
D03*
Y79368D02*
D03*
D64*
X69088Y86868D02*
D03*
D65*
X158922Y525348D02*
D03*
Y555348D02*
D03*
X169672Y525348D02*
D03*
Y555348D02*
D03*
X180422Y525348D02*
D03*
Y555348D02*
D03*
D66*
X143690Y55118D02*
D03*
X102690D02*
D03*
D67*
X71200Y105314D02*
D03*
X87200D02*
D03*
D68*
X228337Y331370D02*
Y373829D01*
X203534Y306568D02*
X228337Y331370D01*
X203534Y283496D02*
Y306568D01*
X203248Y283210D02*
X203534Y283496D01*
X216670Y385496D02*
X220348Y381818D01*
X228337Y373829D01*
X196088Y388366D02*
X198958Y385496D01*
X216670D01*
X100618Y353568D02*
X135416Y388366D01*
X196088D01*
X33823Y353568D02*
X100618D01*
X110296Y455554D02*
Y480689D01*
D69*
X123153Y609503D02*
X123310Y609346D01*
X101627Y609503D02*
X123153D01*
X101470Y609660D02*
X101627Y609503D01*
X95407Y481099D02*
X95612Y480894D01*
X110092D01*
X110296Y480689D01*
X30684Y448360D02*
X30836Y448208D01*
Y429009D02*
Y448208D01*
Y429009D02*
X30988Y428857D01*
D70*
X259842Y222504D02*
D03*
X-34036Y219710D02*
D03*
X266954Y466598D02*
D03*
X-40640Y467106D02*
D03*
D71*
X109878Y455136D02*
D03*
Y405606D02*
D03*
D72*
X196088Y388366D02*
D03*
Y337566D02*
D03*
X253238Y388366D02*
D03*
Y337566D02*
D03*
X196088Y362966D02*
D03*
D73*
X5283Y448360D02*
D03*
Y473760D02*
D03*
X30684Y448360D02*
D03*
Y473760D02*
D03*
X56083Y448360D02*
D03*
D74*
Y473760D02*
D03*
D75*
X54517Y131723D02*
D03*
X87630Y68822D02*
D03*
X170180Y433578D02*
D03*
X155033D02*
D03*
X274563Y621993D02*
D03*
X247736Y621869D02*
D03*
X212121Y622078D02*
D03*
X221002Y622095D02*
D03*
X230150Y621997D02*
D03*
X167416Y621970D02*
D03*
X176125Y621872D02*
D03*
X158268Y622068D02*
D03*
X149559Y622166D02*
D03*
X185404Y621944D02*
D03*
X114213Y622077D02*
D03*
X122921Y621979D02*
D03*
X132070Y621881D02*
D03*
X-22040Y622134D02*
D03*
X-48619Y622133D02*
D03*
X-30763Y621937D02*
D03*
X-39471Y622035D02*
D03*
X-3936Y622061D02*
D03*
X4772Y621964D02*
D03*
X-13084Y622159D02*
D03*
X265535Y622077D02*
D03*
X256827Y622175D02*
D03*
X203198Y622061D02*
D03*
X194490Y622159D02*
D03*
X238733Y622088D02*
D03*
X140527Y622159D02*
D03*
X40220Y606552D02*
D03*
X80220D02*
D03*
D76*
X105148Y162638D02*
D03*
Y172638D02*
D03*
X100148Y167638D02*
D03*
X95148Y162638D02*
D03*
Y172638D02*
D03*
M02*
