M48
;Layer_Color=9474304
;FILE_FORMAT=4:4
METRIC,LZ
T05F00S00C1.0000
%
G90
G05
T05
G00X00209199Y-00013025
M15
G01X00214402Y-00012365
G01X00219354Y-00010633
G01X00223834Y-00007904
G01X00227645Y-000043
G01X0023062Y0000002
G01X00232627Y00004866
G01X00233554Y000095
G01X00240685Y00082059
G01X00240761Y00084772
G01X00240137Y00089834
G01X00238497Y00094664
G01X00235911Y0009906
G01X00232486Y00102839
G01X00228365Y00105843
G01X00224569Y00107656
G01X00218632Y00110316
G01X00213504Y00113652
G01X00208955Y00117741
G01X00205094Y00122484
G01X00202014Y00127769
G01X00199789Y00133467
G01X00198473Y0013944
G01X00198098Y00145545
G01X00198672Y00151634
G01X00200183Y00157562
G01X00202592Y00163184
G01X00205844Y00168365
G01X00209858Y0017298
G01X00214538Y00176918
G01X00219771Y00180084
G01X00225432Y00182402
G01X00231383Y00183815
G01X00237678Y00184305
G01X00268134Y00184335
G01X00273546Y0018505
G01X00278675Y00186925
G01X00283273Y00189869
G01X00287122Y00193742
G01X00290037Y00198359
G01X00291879Y00203498
G01X0029257Y00208369
G01X00302747Y00479943
G01X0030273Y00481345
G01X0030198Y00486888
G01X00300015Y00492124
G01X00296934Y00496791
G01X00292892Y00500656
G01X00288091Y00503525
G01X00282772Y00505253
G01X00277762Y00505786
G01X00262826Y00505786
G01X00256424Y00506295
G01X00250377Y00507763
G01X00244637Y00510168
G01X0023935Y0051345
G01X00234649Y00517526
G01X00230651Y00522295
G01X00227457Y00527635
G01X00225147Y00533413
G01X00223779Y00539484
G01X00223388Y00545694
G01X00223984Y00551889
G01X00225552Y00557911
G01X00228052Y00563609
G01X00231421Y00568841
G01X00235574Y00573475
G01X00240408Y00577394
G01X00245801Y00580499
G01X00251617Y00582713
G01X00257709Y0058398
G01X00264207Y00584281
G01X0029845Y00584281
G01X00300632Y00584782
G01X00302377Y00586186
G01X00303334Y00588211
G01X00303255Y00590663
G01X00300275Y00600922
G01X00296255Y0061082
G01X00291235Y0062025
G01X0028527Y00629112
G01X00278423Y00637313
G01X00270768Y00644764
G01X00262386Y00651387
G01X00253365Y0065711
G01X00243803Y00661873
G01X00233801Y00665625
G01X00223465Y00668327
G01X00212906Y00669948
G01X00202494Y0067048
G01X00022277Y00670473
G01X0001161Y00669895
G01X00001059Y00668221
G01X-00009263Y00665468
G01X-00019247Y00661666
G01X-00028785Y00656855
G01X-00037777Y00651087
G01X-00046126Y00644423
G01X-00053744Y00636934
G01X-0006055Y00628699
G01X-0006647Y00619807
G01X-00071443Y00610352
G01X-00075415Y00600434
G01X-00078226Y00590663
G01X-00078347Y00588427
G01X-00077481Y00586362
G01X-00075799Y00584883
G01X-00073421Y00584281
G01X-00038976Y00584281
G01X-00037686Y00584304
G01X-00031393Y00583808
G01X-00025405Y00582371
G01X-00019716Y00580014
G01X-00014465Y00576797
G01X-00009783Y00572797
G01X-00005783Y00568115
G01X-00002565Y00562864
G01X-00000209Y00557175
G01X00001229Y00551187
G01X00001712Y00545048
G01X00001229Y00538908
G01X-00000209Y0053292
G01X-00002565Y00527231
G01X-00005783Y0052198
G01X-00009783Y00517298
G01X-00014465Y00513298
G01X-00019716Y00510081
G01X-00025405Y00507724
G01X-00031393Y00506287
G01X-00037733Y00505788
G01X-0005316Y00505763
G01X-00058136Y00505159
G01X-00062892Y00503575
G01X-00067236Y00501072
G01X-00070993Y00497753
G01X-00074011Y0049375
G01X-0007617Y00489225
G01X-00077381Y0048436
G01X-0007764Y00479852
G01X-00067412Y00207537
G01X-00066494Y00202154
G01X-00064429Y001971
G01X-00061315Y00192615
G01X-000573Y00188914
G01X-00052578Y00186174
G01X-00047372Y00184525
G01X-0004248Y00184017
G01X-00012716Y00184017
G01X-0000638Y00183519
G01X-00000392Y00182081
G01X00005297Y00179725
G01X00010548Y00176507
G01X00015231Y00172508
G01X0001923Y00167825
G01X00022448Y00162574
G01X00024804Y00156885
G01X00026242Y00150897
G01X00026725Y00144753
G01X00026265Y00138765
G01X00024895Y00132913
G01X00022648Y00127338
G01X00019575Y00122172
G01X0001575Y00117536
G01X00011261Y00113538
G01X00006214Y00110272
G01X00000226Y00107588
G01X-00004663Y00105063
G01X-0000888Y00101529
G01X-00012221Y00097157
G01X-00014523Y0009216
G01X-00015676Y0008678
G01X-00015706Y00081823
G01X-00008513Y0000898
G01X-00007347Y00003866
G01X-00005138Y-00000892
G01X-00001984Y-00005084
G01X00001976Y-00008524
G01X00006566Y-00011062
G01X00011586Y-00012585
G01X00016288Y-00013053
G01X00209199Y-00013025
M16
M17
M30
