M48
;Layer_Color=9474304
;FILE_FORMAT=4:4
METRIC,LZ
;TYPE=PLATED
T01F00S00C0.2000
T02F00S00C0.3000
T03F00S00C0.8000
T04F00S00C0.9000
T06F00S00C1.2000
T07F00S00C2.0000
%
T01
X00095148Y00162638
X00105148
Y00172638
X00100148Y00167638
X00095148Y00172638
T02
X0008763Y00068822
X00054517Y00131723
X00155033Y00433578
X0017018
X00167416Y0062197
X00176125Y00621872
X00185404Y00621944
X0019449Y00622159
X00203198Y00622061
X00212121Y00622078
X00221002Y00622095
X0023015Y00621997
X00238733Y00622088
X00247736Y00621869
X00256827Y00622175
X00265535Y00622077
X00158268Y00622068
X00149559Y00622166
X00140527Y00622159
X0013207Y00621881
X00122921Y00621979
X00114213Y00622077
X0008022Y00606552
X0004022
X00004772Y00621964
X-00003936Y00622061
X-00013084Y00622159
X-0002204Y00622134
X-00030763Y00621937
X-00039471Y00622035
X-00048619Y00622133
X00274563Y00621993
T03
X00148508Y0051976
X00190164Y00561162
T04
X00005283Y0044836
Y0047376
X00030684
Y0044836
X00056083
Y0047376
T06
X00196088Y00337566
Y00362966
Y00388366
X00253238
Y00337566
T07
X-00034036Y0021971
X-0004064Y00467106
X00266954Y00466598
X00259842Y00222504
M30
