G04*
G04 #@! TF.GenerationSoftware,Altium Limited,Altium Designer,25.2.1 (25)*
G04*
G04 Layer_Physical_Order=2*
G04 Layer_Color=16711680*
%FSLAX44Y44*%
%MOMM*%
G71*
G04*
G04 #@! TF.SameCoordinates,8C29F912-5D16-4966-89D4-FD56EA257BD5*
G04*
G04*
G04 #@! TF.FilePolarity,Positive*
G04*
G01*
G75*
%ADD16C,0.2540*%
%ADD70C,4.0000*%
%ADD71R,4.0000X3.0000*%
%ADD72C,2.2000*%
%ADD73C,1.5000*%
%ADD74R,1.5000X1.5000*%
%ADD75C,0.7000*%
%ADD76C,0.4000*%
G36*
X279277Y624314D02*
X284779Y616094D01*
X289404Y607352D01*
X293104Y598179D01*
X294603Y592972D01*
X293839Y591957D01*
X264091D01*
X264029Y591945D01*
X263967Y591954D01*
X256957Y591629D01*
X256749Y591578D01*
X256536Y591576D01*
X249664Y590148D01*
X249468Y590064D01*
X249257Y590029D01*
X242698Y587531D01*
X242517Y587418D01*
X242315Y587349D01*
X236233Y583847D01*
X236072Y583707D01*
X235883Y583607D01*
X230431Y579187D01*
X230295Y579023D01*
X230124Y578895D01*
X225439Y573669D01*
X225330Y573485D01*
X225182Y573331D01*
X221383Y567431D01*
X221304Y567232D01*
X221182Y567057D01*
X218362Y560630D01*
X218316Y560421D01*
X218223Y560229D01*
X216455Y553438D01*
X216443Y553224D01*
X216381Y553020D01*
X215709Y546034D01*
X215731Y545821D01*
X215702Y545609D01*
X216143Y538605D01*
X216197Y538399D01*
X216203Y538185D01*
X217745Y531339D01*
X217832Y531143D01*
X217871Y530933D01*
X220476Y524416D01*
X220592Y524237D01*
X220664Y524036D01*
X224267Y518013D01*
X224410Y517854D01*
X224513Y517667D01*
X229022Y512290D01*
X229189Y512156D01*
X229320Y511987D01*
X234622Y507389D01*
X234808Y507283D01*
X234964Y507137D01*
X240926Y503436D01*
X241126Y503361D01*
X241303Y503242D01*
X247776Y500529D01*
X247986Y500486D01*
X248180Y500396D01*
X255000Y498741D01*
X255213Y498732D01*
X255418Y498674D01*
X262415Y498118D01*
X262521Y498130D01*
X262627Y498110D01*
X277611D01*
X281613Y497658D01*
X285271Y496379D01*
X288552Y494316D01*
X291293Y491576D01*
X293354Y488295D01*
X294634Y484637D01*
X295082Y480661D01*
X295072Y480112D01*
X284904Y208803D01*
X284328Y204914D01*
X282974Y201381D01*
X280884Y198227D01*
X278160Y195602D01*
X274929Y193632D01*
X271348Y192411D01*
X267440Y191981D01*
X237481D01*
X237378Y191961D01*
X237273Y191973D01*
X230399Y191438D01*
X230197Y191381D01*
X229988Y191374D01*
X223279Y189780D01*
X223089Y189693D01*
X222883Y189653D01*
X216502Y187040D01*
X216328Y186925D01*
X216131Y186854D01*
X210231Y183284D01*
X210077Y183143D01*
X209893Y183042D01*
X204617Y178603D01*
X204487Y178439D01*
X204321Y178311D01*
X199796Y173108D01*
X199692Y172927D01*
X199548Y172775D01*
X195883Y166934D01*
X195809Y166738D01*
X195690Y166566D01*
X192974Y160228D01*
X192930Y160023D01*
X192840Y159835D01*
X191137Y153152D01*
X191126Y152943D01*
X191066Y152743D01*
X190419Y145878D01*
X190440Y145670D01*
X190412Y145463D01*
X190835Y138580D01*
X190888Y138378D01*
X190893Y138169D01*
X192376Y131435D01*
X192460Y131243D01*
X192497Y131037D01*
X195005Y124614D01*
X195118Y124437D01*
X195186Y124240D01*
X198658Y118282D01*
X198797Y118125D01*
X198895Y117940D01*
X203248Y112593D01*
X203409Y112459D01*
X203534Y112292D01*
X208662Y107682D01*
X208842Y107575D01*
X208992Y107429D01*
X214772Y103669D01*
X214966Y103592D01*
X215137Y103470D01*
X221399Y100664D01*
X224806Y99036D01*
X227619Y96896D01*
X229939Y94229D01*
X231669Y91147D01*
X232736Y87778D01*
X233104Y84191D01*
X233021Y82501D01*
X225928Y10391D01*
X225166Y6693D01*
X223705Y3364D01*
X221581Y414D01*
X218888Y-2027D01*
X215744Y-3852D01*
X212288Y-4980D01*
X208533Y-5377D01*
X16429D01*
X12673Y-4980D01*
X9218Y-3852D01*
X6074Y-2027D01*
X3381Y414D01*
X1257Y3364D01*
X-204Y6693D01*
X-966Y10391D01*
X-8052Y82427D01*
X-8004Y86388D01*
X-7123Y90098D01*
X-5451Y93525D01*
X-3070Y96503D01*
X-94Y98887D01*
X3557Y100672D01*
X9703Y103424D01*
X9871Y103544D01*
X10063Y103620D01*
X15754Y107302D01*
X15902Y107446D01*
X16080Y107550D01*
X21142Y112059D01*
X21266Y112224D01*
X21426Y112354D01*
X25741Y117583D01*
X25838Y117764D01*
X25977Y117918D01*
X29442Y123744D01*
X29511Y123938D01*
X29624Y124111D01*
X32159Y130398D01*
X32197Y130601D01*
X32282Y130789D01*
X33827Y137389D01*
X33834Y137596D01*
X33890Y137794D01*
X34409Y144553D01*
X34384Y144760D01*
X34409Y144968D01*
X33863Y151892D01*
X33806Y152095D01*
X33798Y152306D01*
X32177Y159059D01*
X32088Y159251D01*
X32047Y159459D01*
X29389Y165875D01*
X29272Y166051D01*
X29198Y166250D01*
X25570Y172171D01*
X25426Y172327D01*
X25323Y172511D01*
X20812Y177792D01*
X20646Y177923D01*
X20515Y178089D01*
X15234Y182600D01*
X15050Y182703D01*
X14894Y182847D01*
X8973Y186475D01*
X8774Y186548D01*
X8598Y186666D01*
X2182Y189324D01*
X1975Y189365D01*
X1783Y189454D01*
X-4971Y191075D01*
X-5182Y191083D01*
X-5386Y191141D01*
X-12309Y191685D01*
X-12415Y191673D01*
X-12519Y191694D01*
X-42333D01*
X-46241Y192123D01*
X-49822Y193345D01*
X-53052Y195315D01*
X-55777Y197939D01*
X-57867Y201094D01*
X-59221Y204627D01*
X-59797Y208516D01*
X-69964Y480005D01*
X-69736Y483607D01*
X-68830Y486961D01*
X-67272Y490065D01*
X-65125Y492797D01*
X-62476Y495044D01*
X-59431Y496717D01*
X-56114Y497749D01*
X-52523Y498111D01*
X-37532D01*
X-37428Y498132D01*
X-37322Y498120D01*
X-30398Y498665D01*
X-30195Y498722D01*
X-29984Y498731D01*
X-23231Y500351D01*
X-23038Y500440D01*
X-22831Y500481D01*
X-16414Y503139D01*
X-16239Y503257D01*
X-16040Y503330D01*
X-10119Y506959D01*
X-9964Y507102D01*
X-9779Y507205D01*
X-4498Y511716D01*
X-4367Y511882D01*
X-4201Y512013D01*
X310Y517294D01*
X413Y517478D01*
X556Y517634D01*
X4185Y523555D01*
X4259Y523754D01*
X4376Y523930D01*
X7034Y530346D01*
X7075Y530554D01*
X7164Y530746D01*
X8785Y537499D01*
X8793Y537710D01*
X8850Y537914D01*
X9396Y544837D01*
X9371Y545047D01*
X9396Y545257D01*
X8850Y552182D01*
X8793Y552385D01*
X8785Y552596D01*
X7164Y559349D01*
X7075Y559541D01*
X7034Y559749D01*
X4376Y566165D01*
X4259Y566341D01*
X4185Y566539D01*
X556Y572461D01*
X413Y572616D01*
X310Y572801D01*
X-4201Y578082D01*
X-4367Y578213D01*
X-4498Y578379D01*
X-9779Y582890D01*
X-9964Y582993D01*
X-10119Y583136D01*
X-16040Y586765D01*
X-16239Y586838D01*
X-16414Y586956D01*
X-22831Y589613D01*
X-23038Y589655D01*
X-23230Y589743D01*
X-29984Y591365D01*
X-30195Y591373D01*
X-30399Y591431D01*
X-37322Y591975D01*
X-37451Y591960D01*
X-37578Y591983D01*
X-39085Y591957D01*
X-68810D01*
X-69574Y592972D01*
X-68076Y598179D01*
X-64376Y607352D01*
X-59750Y616094D01*
X-54248Y624314D01*
X-53160Y625624D01*
X-53118Y625628D01*
X278185D01*
X279277Y624314D01*
D02*
G37*
%LPC*%
G36*
X190164Y567279D02*
X187823Y566814D01*
X185838Y565488D01*
X184512Y563503D01*
X184046Y561162D01*
X184512Y558821D01*
X185838Y556836D01*
X187823Y555510D01*
X190164Y555044D01*
X192505Y555510D01*
X194490Y556836D01*
X195816Y558821D01*
X196282Y561162D01*
X195816Y563503D01*
X194490Y565488D01*
X192505Y566814D01*
X190164Y567279D01*
D02*
G37*
G36*
X148508Y525877D02*
X146167Y525412D01*
X144182Y524086D01*
X142856Y522101D01*
X142390Y519760D01*
X142856Y517419D01*
X144182Y515434D01*
X146167Y514108D01*
X148508Y513642D01*
X150849Y514108D01*
X152834Y515434D01*
X154160Y517419D01*
X154626Y519760D01*
X154160Y522101D01*
X152834Y524086D01*
X150849Y525412D01*
X148508Y525877D01*
D02*
G37*
G36*
X-38640Y489558D02*
Y469106D01*
X-18188D01*
X-18426Y471525D01*
X-19715Y475773D01*
X-21808Y479689D01*
X-24625Y483121D01*
X-28057Y485938D01*
X-31973Y488031D01*
X-36221Y489320D01*
X-38640Y489558D01*
D02*
G37*
G36*
X-42640D02*
X-45059Y489320D01*
X-49307Y488031D01*
X-53223Y485938D01*
X-56655Y483121D01*
X-59472Y479689D01*
X-61565Y475773D01*
X-62854Y471525D01*
X-63092Y469106D01*
X-42640D01*
Y489558D01*
D02*
G37*
G36*
X268954Y489050D02*
Y468598D01*
X289406D01*
X289168Y471017D01*
X287879Y475265D01*
X285786Y479181D01*
X282969Y482613D01*
X279537Y485430D01*
X275621Y487523D01*
X271373Y488812D01*
X268954Y489050D01*
D02*
G37*
G36*
X264954D02*
X262535Y488812D01*
X258287Y487523D01*
X254371Y485430D01*
X250939Y482613D01*
X248122Y479181D01*
X246029Y475265D01*
X244740Y471017D01*
X244502Y468598D01*
X264954D01*
Y489050D01*
D02*
G37*
G36*
X80220Y612160D02*
X78074Y611733D01*
X76255Y610517D01*
X75039Y608698D01*
X74612Y606552D01*
X75039Y604406D01*
X76255Y602587D01*
X76886Y602165D01*
Y521445D01*
X53726Y498285D01*
X53003Y497203D01*
X52749Y495927D01*
Y483260D01*
X46583D01*
Y464260D01*
X65584D01*
Y483260D01*
X59418D01*
Y494546D01*
X82577Y517706D01*
X83300Y518788D01*
X83554Y520064D01*
Y602165D01*
X84185Y602587D01*
X85401Y604406D01*
X85828Y606552D01*
X85401Y608698D01*
X84185Y610517D01*
X82366Y611733D01*
X80220Y612160D01*
D02*
G37*
G36*
X40220D02*
X38074Y611733D01*
X36255Y610517D01*
X35039Y608698D01*
X34612Y606552D01*
X35039Y604406D01*
X36255Y602587D01*
X36886Y602165D01*
Y504249D01*
X28326Y495689D01*
X27603Y494607D01*
X27349Y493331D01*
Y482662D01*
X25893Y482059D01*
X23908Y480536D01*
X22385Y478551D01*
X21428Y476241D01*
X21102Y473760D01*
X21428Y471281D01*
X22385Y468969D01*
X23908Y466985D01*
X25893Y465462D01*
X28203Y464505D01*
X30684Y464179D01*
X33163Y464505D01*
X35475Y465462D01*
X37459Y466985D01*
X38982Y468969D01*
X39939Y471281D01*
X40265Y473760D01*
X39939Y476241D01*
X38982Y478551D01*
X37459Y480536D01*
X35475Y482059D01*
X34018Y482662D01*
Y491950D01*
X42578Y500510D01*
X43300Y501592D01*
X43554Y502868D01*
Y602165D01*
X44185Y602587D01*
X45401Y604406D01*
X45828Y606552D01*
X45401Y608698D01*
X44185Y610517D01*
X42366Y611733D01*
X40220Y612160D01*
D02*
G37*
G36*
X5283Y483343D02*
X2803Y483016D01*
X492Y482059D01*
X-1492Y480536D01*
X-3015Y478551D01*
X-3972Y476241D01*
X-4298Y473760D01*
X-3972Y471281D01*
X-3015Y468969D01*
X-1492Y466985D01*
X492Y465462D01*
X2803Y464505D01*
X5283Y464179D01*
X7764Y464505D01*
X10074Y465462D01*
X12059Y466985D01*
X13582Y468969D01*
X14539Y471281D01*
X14865Y473760D01*
X14539Y476241D01*
X13582Y478551D01*
X12059Y480536D01*
X10074Y482059D01*
X7764Y483016D01*
X5283Y483343D01*
D02*
G37*
G36*
X-18188Y465106D02*
X-38640D01*
Y444654D01*
X-36221Y444892D01*
X-31973Y446181D01*
X-28057Y448274D01*
X-24625Y451091D01*
X-21808Y454523D01*
X-19715Y458439D01*
X-18426Y462687D01*
X-18188Y465106D01*
D02*
G37*
G36*
X-42640D02*
X-63092D01*
X-62854Y462687D01*
X-61565Y458439D01*
X-59472Y454523D01*
X-56655Y451091D01*
X-53223Y448274D01*
X-49307Y446181D01*
X-45059Y444892D01*
X-42640Y444654D01*
Y465106D01*
D02*
G37*
G36*
X289406Y464598D02*
X268954D01*
Y444146D01*
X271373Y444384D01*
X275621Y445673D01*
X279537Y447766D01*
X282969Y450583D01*
X285786Y454015D01*
X287879Y457931D01*
X289168Y462179D01*
X289406Y464598D01*
D02*
G37*
G36*
X264954D02*
X244502D01*
X244740Y462179D01*
X246029Y457931D01*
X248122Y454015D01*
X250939Y450583D01*
X254371Y447766D01*
X258287Y445673D01*
X262535Y444384D01*
X264954Y444146D01*
Y464598D01*
D02*
G37*
G36*
X30684Y457943D02*
X28203Y457616D01*
X25893Y456659D01*
X23908Y455136D01*
X22385Y453152D01*
X21428Y450840D01*
X21102Y448360D01*
X21428Y445881D01*
X22385Y443569D01*
X23908Y441585D01*
X25893Y440062D01*
X28203Y439105D01*
X30684Y438779D01*
X33163Y439105D01*
X35475Y440062D01*
X37459Y441585D01*
X38982Y443569D01*
X39939Y445881D01*
X40265Y448360D01*
X39939Y450840D01*
X38982Y453152D01*
X37459Y455136D01*
X35475Y456659D01*
X33163Y457616D01*
X30684Y457943D01*
D02*
G37*
G36*
X5283D02*
X2803Y457616D01*
X492Y456659D01*
X-1492Y455136D01*
X-3015Y453152D01*
X-3972Y450840D01*
X-4298Y448360D01*
X-3972Y445881D01*
X-3015Y443569D01*
X-1492Y441585D01*
X492Y440062D01*
X2803Y439105D01*
X5283Y438779D01*
X7764Y439105D01*
X10074Y440062D01*
X12059Y441585D01*
X13582Y443569D01*
X14539Y445881D01*
X14865Y448360D01*
X14539Y450840D01*
X13582Y453152D01*
X12059Y455136D01*
X10074Y456659D01*
X7764Y457616D01*
X5283Y457943D01*
D02*
G37*
G36*
X131878Y472136D02*
X87878D01*
Y438136D01*
X131878D01*
Y472136D01*
D02*
G37*
G36*
X253238Y401478D02*
X249844Y401031D01*
X246682Y399721D01*
X243966Y397638D01*
X241882Y394922D01*
X240573Y391760D01*
X240126Y388366D01*
X240573Y384972D01*
X241882Y381810D01*
X243966Y379094D01*
X246682Y377010D01*
X249844Y375701D01*
X253238Y375254D01*
X256632Y375701D01*
X259794Y377010D01*
X262510Y379094D01*
X264594Y381810D01*
X265903Y384972D01*
X266350Y388366D01*
X265903Y391760D01*
X264594Y394922D01*
X262510Y397638D01*
X259794Y399721D01*
X256632Y401031D01*
X253238Y401478D01*
D02*
G37*
G36*
X196088D02*
X192694Y401031D01*
X189532Y399721D01*
X186816Y397638D01*
X184732Y394922D01*
X183423Y391760D01*
X182976Y388366D01*
X183423Y384972D01*
X184732Y381810D01*
X186816Y379094D01*
X189532Y377010D01*
X192694Y375701D01*
X196088Y375254D01*
X199482Y375701D01*
X202644Y377010D01*
X205360Y379094D01*
X207444Y381810D01*
X208753Y384972D01*
X209200Y388366D01*
X208753Y391760D01*
X207444Y394922D01*
X205360Y397638D01*
X202644Y399721D01*
X199482Y401031D01*
X196088Y401478D01*
D02*
G37*
G36*
X253238Y350678D02*
X249844Y350231D01*
X246682Y348922D01*
X243966Y346838D01*
X241882Y344122D01*
X240573Y340960D01*
X240126Y337566D01*
X240573Y334172D01*
X241882Y331010D01*
X243966Y328294D01*
X246682Y326211D01*
X249844Y324901D01*
X253238Y324454D01*
X256632Y324901D01*
X259794Y326211D01*
X262510Y328294D01*
X264594Y331010D01*
X265903Y334172D01*
X266350Y337566D01*
X265903Y340960D01*
X264594Y344122D01*
X262510Y346838D01*
X259794Y348922D01*
X256632Y350231D01*
X253238Y350678D01*
D02*
G37*
G36*
X196088D02*
X192694Y350231D01*
X189532Y348922D01*
X186816Y346838D01*
X184732Y344122D01*
X183423Y340960D01*
X182976Y337566D01*
X183423Y334172D01*
X184732Y331010D01*
X186816Y328294D01*
X189532Y326211D01*
X192694Y324901D01*
X196088Y324454D01*
X199482Y324901D01*
X202644Y326211D01*
X205360Y328294D01*
X207444Y331010D01*
X208753Y334172D01*
X209200Y337566D01*
X208753Y340960D01*
X207444Y344122D01*
X205360Y346838D01*
X202644Y348922D01*
X199482Y350231D01*
X196088Y350678D01*
D02*
G37*
G36*
X170180Y439186D02*
X168034Y438759D01*
X166215Y437543D01*
X164999Y435724D01*
X164572Y433578D01*
X164999Y431432D01*
X166215Y429613D01*
X166846Y429191D01*
Y393771D01*
X52351Y279276D01*
X51592Y279438D01*
X51081Y279756D01*
Y289997D01*
X157390Y396306D01*
X158113Y397388D01*
X158367Y398664D01*
Y429191D01*
X158998Y429613D01*
X160214Y431432D01*
X160641Y433578D01*
X160214Y435724D01*
X158998Y437543D01*
X157179Y438759D01*
X155033Y439186D01*
X152887Y438759D01*
X151068Y437543D01*
X149852Y435724D01*
X149425Y433578D01*
X149852Y431432D01*
X151068Y429613D01*
X151699Y429191D01*
Y400045D01*
X45389Y293736D01*
X44667Y292654D01*
X44413Y291378D01*
Y108706D01*
X44667Y107430D01*
X45389Y106348D01*
X82170Y69567D01*
X82022Y68822D01*
X82449Y66677D01*
X83665Y64857D01*
X85484Y63642D01*
X87630Y63215D01*
X89776Y63642D01*
X91595Y64857D01*
X92811Y66677D01*
X93238Y68822D01*
X92811Y70968D01*
X91595Y72788D01*
X89776Y74003D01*
X87630Y74430D01*
X86885Y74282D01*
X51081Y110087D01*
Y126057D01*
X52201Y126656D01*
X52371Y126542D01*
X54517Y126115D01*
X56663Y126542D01*
X58482Y127758D01*
X59698Y129577D01*
X60125Y131723D01*
X59698Y133869D01*
X58482Y135688D01*
X57851Y136110D01*
Y275346D01*
X172537Y390032D01*
X173260Y391114D01*
X173514Y392390D01*
Y429191D01*
X174145Y429613D01*
X175361Y431432D01*
X175788Y433578D01*
X175361Y435724D01*
X174145Y437543D01*
X172326Y438759D01*
X170180Y439186D01*
D02*
G37*
G36*
X261842Y244956D02*
Y224504D01*
X282294D01*
X282056Y226923D01*
X280767Y231171D01*
X278674Y235087D01*
X275857Y238519D01*
X272425Y241336D01*
X268509Y243429D01*
X264261Y244718D01*
X261842Y244956D01*
D02*
G37*
G36*
X257842D02*
X255423Y244718D01*
X251175Y243429D01*
X247259Y241336D01*
X243827Y238519D01*
X241010Y235087D01*
X238917Y231171D01*
X237628Y226923D01*
X237390Y224504D01*
X257842D01*
Y244956D01*
D02*
G37*
G36*
X-32036Y242162D02*
Y221710D01*
X-11584D01*
X-11822Y224129D01*
X-13111Y228377D01*
X-15204Y232293D01*
X-18021Y235725D01*
X-21453Y238542D01*
X-25369Y240635D01*
X-29617Y241924D01*
X-32036Y242162D01*
D02*
G37*
G36*
X-36036D02*
X-38455Y241924D01*
X-42703Y240635D01*
X-46619Y238542D01*
X-50051Y235725D01*
X-52868Y232293D01*
X-54961Y228377D01*
X-56250Y224129D01*
X-56488Y221710D01*
X-36036D01*
Y242162D01*
D02*
G37*
G36*
X282294Y220504D02*
X261842D01*
Y200052D01*
X264261Y200290D01*
X268509Y201579D01*
X272425Y203672D01*
X275857Y206489D01*
X278674Y209921D01*
X280767Y213837D01*
X282056Y218085D01*
X282294Y220504D01*
D02*
G37*
G36*
X257842D02*
X237390D01*
X237628Y218085D01*
X238917Y213837D01*
X241010Y209921D01*
X243827Y206489D01*
X247259Y203672D01*
X251175Y201579D01*
X255423Y200290D01*
X257842Y200052D01*
Y220504D01*
D02*
G37*
G36*
X-11584Y217710D02*
X-32036D01*
Y197258D01*
X-29617Y197496D01*
X-25369Y198785D01*
X-21453Y200878D01*
X-18021Y203695D01*
X-15204Y207127D01*
X-13111Y211043D01*
X-11822Y215291D01*
X-11584Y217710D01*
D02*
G37*
G36*
X-36036D02*
X-56488D01*
X-56250Y215291D01*
X-54961Y211043D01*
X-52868Y207127D01*
X-50051Y203695D01*
X-46619Y200878D01*
X-42703Y198785D01*
X-38455Y197496D01*
X-36036Y197258D01*
Y217710D01*
D02*
G37*
G36*
X105148Y176717D02*
X103587Y176406D01*
X102264Y175522D01*
X101380Y174199D01*
X101150Y173043D01*
X100148Y172500D01*
X99146Y173043D01*
X98916Y174199D01*
X98032Y175522D01*
X96709Y176406D01*
X95148Y176717D01*
X93587Y176406D01*
X92264Y175522D01*
X91380Y174199D01*
X91069Y172638D01*
X91380Y171077D01*
X92264Y169754D01*
X93587Y168870D01*
X95148Y168560D01*
X95275Y167638D01*
X95148Y166717D01*
X93587Y166406D01*
X92264Y165522D01*
X91380Y164199D01*
X91069Y162638D01*
X91380Y161077D01*
X92264Y159754D01*
X93587Y158870D01*
X95148Y158560D01*
X96709Y158870D01*
X98032Y159754D01*
X98916Y161077D01*
X99144Y162223D01*
X100148Y162775D01*
X101152Y162223D01*
X101380Y161077D01*
X102264Y159754D01*
X103587Y158870D01*
X105148Y158560D01*
X106709Y158870D01*
X108032Y159754D01*
X108916Y161077D01*
X109226Y162638D01*
X108916Y164199D01*
X108032Y165522D01*
X106709Y166406D01*
X105148Y166717D01*
X105118Y166711D01*
X104457Y167372D01*
X104299Y167638D01*
X104457Y167904D01*
X105118Y168566D01*
X105148Y168560D01*
X106709Y168870D01*
X108032Y169754D01*
X108916Y171077D01*
X109226Y172638D01*
X108916Y174199D01*
X108032Y175522D01*
X106709Y176406D01*
X105148Y176717D01*
D02*
G37*
%LPD*%
D16*
X47747Y291378D02*
X155033Y398664D01*
X47747Y108706D02*
Y291378D01*
Y108706D02*
X87630Y68823D01*
X54517Y276727D02*
X170180Y392390D01*
X54517Y131723D02*
Y276727D01*
X155033Y398664D02*
Y433578D01*
X87630Y68822D02*
Y68823D01*
X170180Y392390D02*
Y433578D01*
X56083Y473760D02*
Y495927D01*
X80220Y520064D02*
Y606552D01*
X56083Y495927D02*
X80220Y520064D01*
X40220Y502868D02*
Y606552D01*
X30684Y493331D02*
X40220Y502868D01*
X30684Y473760D02*
Y493331D01*
D70*
X259842Y222504D02*
D03*
X-34036Y219710D02*
D03*
X266954Y466598D02*
D03*
X-40640Y467106D02*
D03*
D71*
X109878Y455136D02*
D03*
Y405606D02*
D03*
D72*
X196088Y388366D02*
D03*
Y337566D02*
D03*
X253238Y388366D02*
D03*
Y337566D02*
D03*
X196088Y362966D02*
D03*
D73*
X5283Y448360D02*
D03*
Y473760D02*
D03*
X30684Y448360D02*
D03*
Y473760D02*
D03*
X56083Y448360D02*
D03*
D74*
Y473760D02*
D03*
D75*
X54517Y131723D02*
D03*
X87630Y68822D02*
D03*
X170180Y433578D02*
D03*
X155033D02*
D03*
X274563Y621993D02*
D03*
X247736Y621869D02*
D03*
X212121Y622078D02*
D03*
X221002Y622095D02*
D03*
X230150Y621997D02*
D03*
X167416Y621970D02*
D03*
X176125Y621872D02*
D03*
X158268Y622068D02*
D03*
X149559Y622166D02*
D03*
X185404Y621944D02*
D03*
X114213Y622077D02*
D03*
X122921Y621979D02*
D03*
X132070Y621881D02*
D03*
X-22040Y622134D02*
D03*
X-48619Y622133D02*
D03*
X-30763Y621937D02*
D03*
X-39471Y622035D02*
D03*
X-3936Y622061D02*
D03*
X4772Y621964D02*
D03*
X-13084Y622159D02*
D03*
X265535Y622077D02*
D03*
X256827Y622175D02*
D03*
X203198Y622061D02*
D03*
X194490Y622159D02*
D03*
X238733Y622088D02*
D03*
X140527Y622159D02*
D03*
X40220Y606552D02*
D03*
X80220D02*
D03*
D76*
X105148Y162638D02*
D03*
Y172638D02*
D03*
X100148Y167638D02*
D03*
X95148Y162638D02*
D03*
Y172638D02*
D03*
M02*
