G04*
G04 #@! TF.GenerationSoftware,Altium Limited,Altium Designer,25.2.1 (25)*
G04*
G04 Layer_Color=8421504*
%FSLAX44Y44*%
%MOMM*%
G71*
G04*
G04 #@! TF.SameCoordinates,8C29F912-5D16-4966-89D4-FD56EA257BD5*
G04*
G04*
G04 #@! TF.FilePolarity,Positive*
G04*
G01*
G75*
G04:AMPARAMS|DCode=17|XSize=1.15mm|YSize=1.15mm|CornerRadius=0mm|HoleSize=0mm|Usage=FLASHONLY|Rotation=180.000|XOffset=0mm|YOffset=0mm|HoleType=Round|Shape=RoundedRectangle|*
%AMROUNDEDRECTD17*
21,1,1.1500,1.1500,0,0,180.0*
21,1,1.1500,1.1500,0,0,180.0*
1,1,0.0000,-0.5750,0.5750*
1,1,0.0000,0.5750,0.5750*
1,1,0.0000,0.5750,-0.5750*
1,1,0.0000,-0.5750,-0.5750*
%
%ADD17ROUNDEDRECTD17*%
%ADD18R,0.9000X1.3500*%
%ADD19R,1.2000X1.1000*%
%ADD20R,1.1000X1.2000*%
G04:AMPARAMS|DCode=21|XSize=1.15mm|YSize=1.15mm|CornerRadius=0mm|HoleSize=0mm|Usage=FLASHONLY|Rotation=90.000|XOffset=0mm|YOffset=0mm|HoleType=Round|Shape=RoundedRectangle|*
%AMROUNDEDRECTD21*
21,1,1.1500,1.1500,0,0,90.0*
21,1,1.1500,1.1500,0,0,90.0*
1,1,0.0000,0.5750,0.5750*
1,1,0.0000,0.5750,-0.5750*
1,1,0.0000,-0.5750,-0.5750*
1,1,0.0000,-0.5750,0.5750*
%
%ADD21ROUNDEDRECTD21*%
%ADD22R,4.2000X4.2000*%
%ADD23R,1.3800X4.9000*%
%ADD24R,1.8800X1.8800*%
G04:AMPARAMS|DCode=25|XSize=0.4mm|YSize=0.8mm|CornerRadius=0.105mm|HoleSize=0mm|Usage=FLASHONLY|Rotation=0.000|XOffset=0mm|YOffset=0mm|HoleType=Round|Shape=RoundedRectangle|*
%AMROUNDEDRECTD25*
21,1,0.4000,0.5900,0,0,0.0*
21,1,0.1900,0.8000,0,0,0.0*
1,1,0.2100,0.0950,-0.2950*
1,1,0.2100,-0.0950,-0.2950*
1,1,0.2100,-0.0950,0.2950*
1,1,0.2100,0.0950,0.2950*
%
%ADD25ROUNDEDRECTD25*%
G04:AMPARAMS|DCode=26|XSize=0.4mm|YSize=0.8mm|CornerRadius=0.105mm|HoleSize=0mm|Usage=FLASHONLY|Rotation=270.000|XOffset=0mm|YOffset=0mm|HoleType=Round|Shape=RoundedRectangle|*
%AMROUNDEDRECTD26*
21,1,0.4000,0.5900,0,0,270.0*
21,1,0.1900,0.8000,0,0,270.0*
1,1,0.2100,-0.2950,-0.0950*
1,1,0.2100,-0.2950,0.0950*
1,1,0.2100,0.2950,0.0950*
1,1,0.2100,0.2950,-0.0950*
%
%ADD26ROUNDEDRECTD26*%
%ADD27R,2.4500X2.5000*%
%ADD28R,1.9500X1.5000*%
%ADD29R,0.7000X1.5000*%
%ADD30R,0.8000X1.7000*%
%ADD31R,1.3500X0.9000*%
%ADD32R,0.9000X0.9000*%
G04:AMPARAMS|DCode=33|XSize=0.7mm|YSize=0.4mm|CornerRadius=0.15mm|HoleSize=0mm|Usage=FLASHONLY|Rotation=180.000|XOffset=0mm|YOffset=0mm|HoleType=Round|Shape=RoundedRectangle|*
%AMROUNDEDRECTD33*
21,1,0.7000,0.1000,0,0,180.0*
21,1,0.4000,0.4000,0,0,180.0*
1,1,0.3000,-0.2000,0.0500*
1,1,0.3000,0.2000,0.0500*
1,1,0.3000,0.2000,-0.0500*
1,1,0.3000,-0.2000,-0.0500*
%
%ADD33ROUNDEDRECTD33*%
%ADD34R,1.7000X1.7500*%
%ADD35R,0.8000X1.4000*%
%ADD36R,2.4000X1.7500*%
%ADD37R,1.2000X1.2000*%
G36*
X68338Y81968D02*
X62438D01*
Y91768D01*
X68338D01*
Y81968D01*
D02*
G37*
G36*
X75738D02*
X69838D01*
Y91768D01*
X75738D01*
Y81968D01*
D02*
G37*
D17*
X138555Y171001D02*
D03*
X153555D02*
D03*
X50055Y372042D02*
D03*
X65055D02*
D03*
X112190Y79868D02*
D03*
X97190D02*
D03*
X123310Y609346D02*
D03*
X138310D02*
D03*
X30092Y425958D02*
D03*
X45092D02*
D03*
D18*
X40220Y618910D02*
D03*
X80220D02*
D03*
X50220D02*
D03*
X60220D02*
D03*
X70220D02*
D03*
X80220Y530410D02*
D03*
X70220D02*
D03*
X60220D02*
D03*
X50220D02*
D03*
X40220D02*
D03*
D19*
X155033Y480553D02*
D03*
Y497553D02*
D03*
X185513Y480467D02*
D03*
Y497467D02*
D03*
X74930Y202184D02*
D03*
Y185184D02*
D03*
X625Y391222D02*
D03*
Y408222D02*
D03*
X170180Y497704D02*
D03*
Y480704D02*
D03*
X110296Y480689D02*
D03*
Y497689D02*
D03*
D20*
X33823Y353568D02*
D03*
X16823D02*
D03*
X21354Y79248D02*
D03*
X38354D02*
D03*
D21*
X87668Y137926D02*
D03*
Y122926D02*
D03*
X117573Y138057D02*
D03*
Y123057D02*
D03*
X102718Y137988D02*
D03*
Y122988D02*
D03*
X95407Y481099D02*
D03*
Y496099D02*
D03*
D22*
X203248Y283210D02*
D03*
Y219710D02*
D03*
D23*
X108527Y223686D02*
D03*
X141627D02*
D03*
D24*
X100148Y167638D02*
D03*
D25*
X107648Y182138D02*
D03*
X102648D02*
D03*
X97648D02*
D03*
X92648D02*
D03*
Y153138D02*
D03*
X97648D02*
D03*
X102648D02*
D03*
X107648D02*
D03*
D26*
X85648Y175138D02*
D03*
Y170138D02*
D03*
Y165138D02*
D03*
Y160138D02*
D03*
X114648D02*
D03*
Y165138D02*
D03*
Y170138D02*
D03*
Y175138D02*
D03*
D27*
X136440Y9075D02*
D03*
X94940D02*
D03*
D28*
X146170Y30935D02*
D03*
X85210D02*
D03*
D29*
X128690Y31115D02*
D03*
X122190D02*
D03*
X115690D02*
D03*
X109190D02*
D03*
X102690D02*
D03*
D30*
X26605Y372042D02*
D03*
X17105Y391042D02*
D03*
X36105D02*
D03*
D31*
X18970Y529660D02*
D03*
Y539660D02*
D03*
Y549660D02*
D03*
Y559660D02*
D03*
Y569660D02*
D03*
Y579660D02*
D03*
Y589660D02*
D03*
Y599660D02*
D03*
Y609660D02*
D03*
Y619660D02*
D03*
X101470D02*
D03*
Y609660D02*
D03*
Y599660D02*
D03*
Y589660D02*
D03*
Y579660D02*
D03*
Y569660D02*
D03*
Y559660D02*
D03*
Y549660D02*
D03*
Y539660D02*
D03*
Y529660D02*
D03*
D32*
X42970Y568960D02*
D03*
X54470D02*
D03*
Y557460D02*
D03*
X65970Y568960D02*
D03*
Y557460D02*
D03*
X77470Y568960D02*
D03*
X54470Y580460D02*
D03*
X65970D02*
D03*
X54470Y591960D02*
D03*
X65970D02*
D03*
X77470D02*
D03*
X42970D02*
D03*
D33*
X83438Y79368D02*
D03*
Y84368D02*
D03*
Y89368D02*
D03*
Y94368D02*
D03*
X54738D02*
D03*
Y89368D02*
D03*
Y84368D02*
D03*
Y79368D02*
D03*
D34*
X69088Y86868D02*
D03*
D35*
X158922Y525348D02*
D03*
Y555348D02*
D03*
X169672Y525348D02*
D03*
Y555348D02*
D03*
X180422Y525348D02*
D03*
Y555348D02*
D03*
D36*
X143690Y55118D02*
D03*
X102690D02*
D03*
D37*
X71200Y105314D02*
D03*
X87200D02*
D03*
M02*
