G04*
G04 #@! TF.GenerationSoftware,Altium Limited,Altium Designer,25.2.1 (25)*
G04*
G04 Layer_Color=16711935*
%FSLAX44Y44*%
%MOMM*%
G71*
G04*
G04 #@! TF.SameCoordinates,8C29F912-5D16-4966-89D4-FD56EA257BD5*
G04*
G04*
G04 #@! TF.FilePolarity,Positive*
G04*
G01*
G75*
%ADD10C,0.1250*%
D10*
X-54510Y628187D02*
X-53241Y628304D01*
X279441D02*
X281424Y625918D01*
X-54412Y628304D02*
X-52070D01*
X279441D01*
X-37532Y500788D02*
X-30608Y501333D01*
X-23855Y502954D01*
X-17439Y505612D01*
X-11517Y509240D01*
X-6236Y513751D01*
X-1726Y519032D01*
X1903Y524954D01*
X4561Y531371D01*
X6182Y538124D01*
X6727Y545047D01*
X6182Y551972D02*
X6727Y545047D01*
X4561Y558724D02*
X6182Y551972D01*
X1903Y565141D02*
X4561Y558724D01*
X-1726Y571063D02*
X1903Y565141D01*
X-6236Y576344D02*
X-1726Y571063D01*
X-11517Y580854D02*
X-6236Y576344D01*
X-17439Y584483D02*
X-11517Y580854D01*
X-23855Y587141D02*
X-17439Y584483D01*
X-30608Y588762D02*
X-23855Y587141D01*
X-37532Y589307D02*
X-30608Y588762D01*
X-39062Y589281D02*
X-37532Y589307D01*
X-73421Y589281D02*
X-39062D01*
X-73421D02*
X-70609Y599052D01*
X-66806Y608481D01*
X-62051Y617468D01*
X-56395Y625918D01*
X-54510Y628187D01*
X281424Y625918D02*
X287080Y617468D01*
X291835Y608481D01*
X295638Y599052D01*
X298450Y589281D01*
X264091D02*
X298450D01*
X257080Y588956D02*
X264091Y589281D01*
X250209Y587527D02*
X257080Y588956D01*
X243650Y585030D02*
X250209Y587527D01*
X237569Y581528D02*
X243650Y585030D01*
X232117Y577108D02*
X237569Y581528D01*
X227432Y571883D02*
X232117Y577108D01*
X223633Y565982D02*
X227432Y571883D01*
X220813Y559555D02*
X223633Y565982D01*
X219046Y552763D02*
X220813Y559555D01*
X218374Y545777D02*
X219046Y552763D01*
X218374Y545777D02*
X218814Y538773D01*
X220356Y531927D01*
X222961Y525410D01*
X226564Y519387D01*
X231073Y514009D01*
X236375Y509411D01*
X242338Y505710D01*
X248811Y502997D01*
X255631Y501342D01*
X262627Y500786D01*
X277762D01*
X282212Y500284D01*
X286439Y498805D01*
X290232Y496422D01*
X293398Y493255D01*
X295781Y489464D01*
X297260Y485236D01*
X297762Y480786D01*
X297747Y480037D02*
X297762Y480786D01*
X287573Y208556D02*
X297747Y480037D01*
X286933Y204231D02*
X287573Y208556D01*
X285368Y200148D02*
X286933Y204231D01*
X282953Y196503D02*
X285368Y200148D01*
X279804Y193470D02*
X282953Y196503D01*
X276072Y191194D02*
X279804Y193470D01*
X271933Y189783D02*
X276072Y191194D01*
X267587Y189305D02*
X271933Y189783D01*
X237481Y189305D02*
X267587D01*
X230606Y188770D02*
X237481Y189305D01*
X223897Y187176D02*
X230606Y188770D01*
X217516Y184564D02*
X223897Y187176D01*
X211616Y180994D02*
X217516Y184564D01*
X206341Y176555D02*
X211616Y180994D01*
X201815Y171352D02*
X206341Y176555D01*
X198151Y165511D02*
X201815Y171352D01*
X195434Y159174D02*
X198151Y165511D01*
X193731Y152491D02*
X195434Y159174D01*
X193083Y145627D02*
X193731Y152491D01*
X193083Y145627D02*
X193506Y138744D01*
X194990Y132010D01*
X197498Y125587D01*
X200970Y119630D01*
X205323Y114282D01*
X210451Y109673D01*
X216231Y105913D01*
X222524Y103093D01*
X226208Y101332D01*
X229459Y98859D01*
X232139Y95778D01*
X234137Y92217D01*
X235370Y88324D01*
X235787Y84262D01*
X235691Y82304D02*
X235787Y84262D01*
X228578Y9989D02*
X235691Y82304D01*
X227730Y5875D02*
X228578Y9989D01*
X226042Y2030D02*
X227730Y5875D01*
X223588Y-1379D02*
X226042Y2030D01*
X220476Y-4200D02*
X223588Y-1379D01*
X216843Y-6308D02*
X220476Y-4200D01*
X212850Y-7612D02*
X216843Y-6308D01*
X208674Y-8053D02*
X212850Y-7612D01*
X16288Y-8053D02*
X208674D01*
X12111Y-7612D02*
X16288Y-8053D01*
X8118Y-6308D02*
X12111Y-7612D01*
X4486Y-4200D02*
X8118Y-6308D01*
X1374Y-1379D02*
X4486Y-4200D01*
X-1080Y2030D02*
X1374Y-1379D01*
X-2768Y5875D02*
X-1080Y2030D01*
X-3616Y9989D02*
X-2768Y5875D01*
X-10731Y82312D02*
X-3616Y9989D01*
X-10731Y82312D02*
X-10676Y86718D01*
X-9658Y91005D01*
X-7727Y94965D01*
X-4975Y98406D01*
X-1536Y101161D01*
X2422Y103096D01*
X8609Y105867D01*
X14300Y109549D01*
X19362Y114058D01*
X23676Y119286D01*
X27141Y125112D01*
X29676Y131399D01*
X31221Y137999D01*
X31740Y144758D01*
X31195Y151682D02*
X31740Y144758D01*
X29574Y158434D02*
X31195Y151682D01*
X26916Y164851D02*
X29574Y158434D01*
X23288Y170773D02*
X26916Y164851D01*
X18777Y176054D02*
X23288Y170773D01*
X13496Y180564D02*
X18777Y176054D01*
X7574Y184193D02*
X13496Y180564D01*
X1158Y186851D02*
X7574Y184193D01*
X-5596Y188473D02*
X1158Y186851D01*
X-12519Y189017D02*
X-5596Y188473D01*
X-42480Y189017D02*
X-12519D01*
X-46826Y189495D02*
X-42480Y189017D01*
X-50964Y190906D02*
X-46826Y189495D01*
X-54697Y193183D02*
X-50964Y190906D01*
X-57846Y196216D02*
X-54697Y193183D01*
X-60261Y199861D02*
X-57846Y196216D01*
X-61826Y203944D02*
X-60261Y199861D01*
X-62466Y208269D02*
X-61826Y203944D01*
X-72644Y480039D02*
X-62466Y208269D01*
X-72644Y480039D02*
X-72390Y484045D01*
X-71343Y487920D01*
X-69543Y491507D01*
X-67062Y494663D01*
X-64001Y497260D01*
X-60484Y499193D01*
X-56651Y500385D01*
X-52658Y500788D01*
X-37532D01*
M02*
